<svg xmlns="http://www.w3.org/2000/svg" xmlns:xlink="http://www.w3.org/1999/xlink" width="500" zoomAndPan="magnify" viewBox="0 0 375 374.999991" height="500" preserveAspectRatio="xMidYMid meet" version="1.0"><defs><clipPath id="58a4378377"><path d="M 79.171875 79.171875 L 295.828125 79.171875 L 295.828125 295.828125 L 79.171875 295.828125 Z M 79.171875 79.171875 " clip-rule="nonzero"/></clipPath><clipPath id="6d05875054"><path d="M 187.5 79.171875 C 127.671875 79.171875 79.171875 127.671875 79.171875 187.5 C 79.171875 247.328125 127.671875 295.828125 187.5 295.828125 C 247.328125 295.828125 295.828125 247.328125 295.828125 187.5 C 295.828125 127.671875 247.328125 79.171875 187.5 79.171875 Z M 187.5 79.171875 " clip-rule="nonzero"/></clipPath><clipPath id="9d4a54f988"><path d="M 92.101562 92.101562 L 282.898438 92.101562 L 282.898438 282.898438 L 92.101562 282.898438 Z M 92.101562 92.101562 " clip-rule="nonzero"/></clipPath><clipPath id="0a68c52c05"><path d="M 187.5 92.101562 C 134.8125 92.101562 92.101562 134.8125 92.101562 187.5 C 92.101562 240.1875 134.8125 282.898438 187.5 282.898438 C 240.1875 282.898438 282.898438 240.1875 282.898438 187.5 C 282.898438 134.8125 240.1875 92.101562 187.5 92.101562 Z M 187.5 92.101562 " clip-rule="nonzero"/></clipPath><clipPath id="5db30d75fe"><path d="M 92.101562 92.101562 L 282.601562 92.101562 L 282.601562 282.601562 L 92.101562 282.601562 Z M 92.101562 92.101562 " clip-rule="nonzero"/></clipPath><clipPath id="4b67b6ca61"><path d="M 187.5 92.101562 C 134.8125 92.101562 92.101562 134.8125 92.101562 187.5 C 92.101562 240.1875 134.8125 282.894531 187.5 282.894531 C 240.1875 282.894531 282.894531 240.1875 282.894531 187.5 C 282.894531 134.8125 240.1875 92.101562 187.5 92.101562 Z M 187.5 92.101562 " clip-rule="nonzero"/></clipPath><clipPath id="d8d29078a8"><path d="M 99.296875 99.296875 L 275.703125 99.296875 L 275.703125 275.703125 L 99.296875 275.703125 Z M 99.296875 99.296875 " clip-rule="nonzero"/></clipPath><clipPath id="1c11cb49ef"><path d="M 187.5 99.296875 C 138.789062 99.296875 99.296875 138.789062 99.296875 187.5 C 99.296875 236.210938 138.789062 275.703125 187.5 275.703125 C 236.210938 275.703125 275.703125 236.210938 275.703125 187.5 C 275.703125 138.789062 236.210938 99.296875 187.5 99.296875 Z M 187.5 99.296875 " clip-rule="nonzero"/></clipPath><clipPath id="eb33b88104"><path d="M 160 142.492188 L 209 142.492188 L 209 229 L 160 229 Z M 160 142.492188 " clip-rule="nonzero"/></clipPath><clipPath id="5c9f37feba"><path d="M 108.539062 167 L 169 167 L 169 232.492188 L 108.539062 232.492188 Z M 108.539062 167 " clip-rule="nonzero"/></clipPath><clipPath id="7af016d813"><path d="M 196.699219 153 L 266.402344 153 L 266.402344 187.082031 L 196.699219 187.082031 Z M 196.699219 153 " clip-rule="nonzero"/></clipPath><clipPath id="4f36009077"><path d="M 171 184.136719 L 264.457031 184.136719 L 264.457031 232.492188 L 171 232.492188 Z M 171 184.136719 " clip-rule="nonzero"/></clipPath></defs><g clip-path="url(#58a4378377)"><g clip-path="url(#6d05875054)"><path fill="#ffffff" d="M 79.171875 79.171875 L 295.828125 79.171875 L 295.828125 295.828125 L 79.171875 295.828125 Z M 79.171875 79.171875 " fill-opacity="1" fill-rule="nonzero"/><path stroke-linecap="butt" transform="matrix(0.75, 0, 0, 0.75, 79.170703, 79.170698)" fill="none" stroke-linejoin="miter" d="M 144.439073 0.00156933 C 64.668234 0.00156933 0.00156333 64.66824 0.00156333 144.439079 C 0.00156333 224.209917 64.668234 288.876588 144.439073 288.876588 C 224.209911 288.876588 288.876582 224.209917 288.876582 144.439079 C 288.876582 64.66824 224.209911 0.00156933 144.439073 0.00156933 Z M 144.439073 0.00156933 " stroke="#03a7b7" stroke-width="6" stroke-opacity="1" stroke-miterlimit="4"/></g></g><g clip-path="url(#9d4a54f988)"><g clip-path="url(#0a68c52c05)"><path fill="#ffffff" d="M 92.101562 92.101562 L 282.898438 92.101562 L 282.898438 282.898438 L 92.101562 282.898438 Z M 92.101562 92.101562 " fill-opacity="1" fill-rule="nonzero"/></g></g><g clip-path="url(#5db30d75fe)"><g clip-path="url(#4b67b6ca61)"><path stroke-linecap="butt" transform="matrix(0.75, 0, 0, 0.75, 92.103061, 92.103056)" fill="none" stroke-linejoin="miter" d="M 127.195919 -0.0019918 C 56.945919 -0.0019918 -0.0019978 56.945925 -0.0019978 127.195925 C -0.0019978 197.445925 56.945919 254.388634 127.195919 254.388634 C 197.445919 254.388634 254.388628 197.445925 254.388628 127.195925 C 254.388628 56.945925 197.445919 -0.0019918 127.195919 -0.0019918 Z M 127.195919 -0.0019918 " stroke="#03a7b7" stroke-width="4" stroke-opacity="1" stroke-miterlimit="4"/></g></g><g clip-path="url(#d8d29078a8)"><g clip-path="url(#1c11cb49ef)"><path fill="#03a7b7" d="M 99.296875 99.296875 L 275.703125 99.296875 L 275.703125 275.703125 L 99.296875 275.703125 Z M 99.296875 99.296875 " fill-opacity="1" fill-rule="nonzero"/></g></g><g clip-path="url(#eb33b88104)"><path fill="#ffffff" d="M 166.804688 228.367188 C 166.804688 228.367188 166.917969 202.492188 208.046875 168.40625 C 208.046875 168.40625 165.351562 198.007812 169.429688 142.492188 C 169.429688 142.492188 150.269531 181.054688 166.804688 228.367188 " fill-opacity="1" fill-rule="nonzero"/></g><path fill="#ffffff" d="M 187.765625 156.585938 C 192.1875 159.40625 193.296875 165.582031 190.238281 170.378906 C 187.179688 175.179688 181.113281 176.78125 176.6875 173.960938 C 172.265625 171.140625 171.15625 164.964844 174.214844 160.167969 C 177.273438 155.371094 183.339844 153.765625 187.765625 156.585938 " fill-opacity="1" fill-rule="nonzero"/><g clip-path="url(#5c9f37feba)"><path fill="#ffa43a" d="M 168.3125 232.234375 C 168.3125 232.234375 149.921875 217.027344 149.652344 167.765625 C 149.652344 167.765625 145.804688 215.523438 108.589844 180.160156 C 108.589844 180.160156 124.898438 216.371094 168.3125 232.234375 " fill-opacity="1" fill-rule="nonzero"/></g><path fill="#ffa43a" d="M 129.363281 175.320312 C 133.960938 173.816406 139.011719 176.636719 140.648438 181.621094 C 142.28125 186.609375 139.878906 191.875 135.28125 193.382812 C 130.683594 194.886719 125.632812 192.066406 123.996094 187.082031 C 122.363281 182.09375 124.765625 176.828125 129.363281 175.320312 " fill-opacity="1" fill-rule="nonzero"/><path fill="#ffffff" d="M 255.824219 170.089844 L 227.847656 212.570312 C 197.238281 205.769531 177.734375 215.097656 174.710938 217 C 174.710938 217 201.871094 169.84375 255.824219 170.089844 " fill-opacity="1" fill-rule="nonzero"/><g clip-path="url(#7af016d813)"><path fill="#ffa43a" d="M 266.402344 153.011719 L 259.777344 163.074219 C 231.375 162.582031 209.816406 175.839844 196.710938 187.070312 C 208.714844 173.371094 231.980469 153.546875 266.402344 153.011719 " fill-opacity="1" fill-rule="nonzero"/></g><path fill="#ffffff" d="M 260.515625 178.785156 L 231.957031 221.125 C 197.734375 212.941406 176.28125 223.011719 172.84375 224.804688 L 173.890625 220.4375 C 180.175781 217.425781 200.921875 210.40625 231.304688 217.667969 L 257.789062 178.183594 C 258.695312 178.367188 259.601562 178.566406 260.515625 178.785156 " fill-opacity="1" fill-rule="nonzero"/><g clip-path="url(#4f36009077)"><path fill="#ffffff" d="M 264.449219 184.804688 L 234.976562 228.398438 C 197.335938 219.402344 174.082031 230.851562 171.003906 232.5 L 172.042969 228.15625 C 178.625 224.945312 201.039062 217.125 234.179688 225.046875 L 261.664062 184.191406 C 262.585938 184.378906 263.515625 184.582031 264.449219 184.804688 " fill-opacity="1" fill-rule="nonzero"/></g></svg>