<svg xmlns="http://www.w3.org/2000/svg" xmlns:xlink="http://www.w3.org/1999/xlink" width="500" zoomAndPan="magnify" viewBox="0 0 375 374.999991" height="500" preserveAspectRatio="xMidYMid meet" version="1.0"><defs><clipPath id="9e94354d8c"><path d="M 26 96.234375 L 349.578125 96.234375 L 349.578125 278.484375 L 26 278.484375 Z M 26 96.234375 " clip-rule="nonzero"/></clipPath></defs><g clip-path="url(#9e94354d8c)"><path fill="#ffa43a" d="M 334.066406 212.433594 C 334.921875 213.117188 335.765625 213.679688 336.492188 214.363281 C 337.707031 215.492188 338.886719 216.660156 340.015625 217.886719 C 341.261719 219.230469 342.441406 220.628906 343.636719 222.015625 C 343.992188 222.4375 344.296875 223 344.035156 223.511719 C 343.785156 224 343.222656 224.195312 342.625 224.171875 C 342.496094 224.160156 342.367188 224.160156 342.238281 224.171875 C 341.824219 224.226562 341.273438 223.957031 341.089844 224.476562 C 341.023438 224.660156 341.457031 225.015625 341.671875 225.289062 C 342.746094 226.632812 343.839844 227.964844 344.914062 229.320312 C 345.304688 229.808594 345.335938 230.371094 344.890625 230.816406 C 344.285156 231.433594 344.175781 232.171875 344.070312 232.972656 C 343.90625 234.273438 343.582031 235.5625 343.320312 236.851562 C 343.300781 236.941406 343.308594 237.027344 343.300781 237.101562 C 343.210938 238.425781 343.058594 239.734375 343.050781 241.058594 C 343.015625 245.945312 343.050781 250.84375 343.027344 255.734375 C 343.027344 256.265625 343.253906 256.839844 342.800781 257.347656 C 342.703125 257.457031 342.898438 257.902344 343.050781 258.128906 C 344.253906 259.9375 344.761719 262.050781 345.75 263.960938 C 346.476562 265.359375 347.179688 266.777344 347.882812 268.1875 C 348.199219 268.804688 348.457031 269.445312 348.816406 270.03125 C 349.238281 270.710938 349.042969 271.449219 349.042969 272.152344 C 349.042969 272.578125 348.101562 273 347.601562 272.890625 C 347.199219 272.804688 346.800781 272.695312 346.386719 272.652344 C 345.011719 272.5 343.625 272.511719 342.28125 272.132812 C 342.117188 272.089844 341.933594 272.121094 341.761719 272.121094 C 340.320312 272.144531 338.921875 271.894531 337.523438 271.613281 C 336.523438 271.417969 335.496094 271.449219 334.488281 271.320312 C 333.542969 271.199219 332.613281 270.992188 331.667969 270.851562 C 330.84375 270.734375 330.011719 270.648438 329.175781 270.539062 C 327.09375 270.277344 325.015625 270.09375 322.957031 269.726562 C 321.058594 269.390625 319.160156 269.152344 317.253906 268.933594 C 315.628906 268.75 313.992188 268.566406 312.367188 268.402344 C 310.296875 268.199219 308.226562 268.046875 306.167969 267.863281 C 304.929688 267.753906 303.671875 267.851562 302.480469 267.613281 C 300.84375 267.289062 299.207031 267.578125 297.605469 267.375 C 293.800781 266.875 289.984375 267.222656 286.179688 267.144531 C 282.332031 267.082031 278.484375 266.953125 274.648438 267.199219 C 272.144531 267.363281 269.628906 267.136719 267.160156 267.449219 C 264.785156 267.753906 262.402344 267.40625 260.058594 267.699219 C 257.6875 268.003906 255.300781 267.6875 252.960938 267.980469 C 251.324219 268.1875 249.6875 267.96875 248.082031 268.230469 C 246.535156 268.480469 244.972656 268.242188 243.476562 268.5 C 241.925781 268.773438 240.378906 268.5 238.871094 268.75 C 237.503906 268.976562 236.140625 268.847656 234.785156 269 C 232.628906 269.238281 230.480469 269.445312 228.3125 269.519531 C 226.503906 269.585938 224.695312 269.78125 222.894531 270.039062 C 221.183594 270.289062 219.457031 270.429688 217.734375 270.582031 C 215.882812 270.734375 214.027344 270.90625 212.1875 271.125 C 210.007812 271.375 207.808594 271.546875 205.660156 272.109375 C 203.730469 272.628906 201.824219 273.195312 200.175781 274.363281 C 198.421875 275.609375 196.382812 276.195312 194.378906 276.8125 C 192.1875 277.484375 189.914062 277.476562 187.660156 277.324219 C 186.054688 277.214844 184.472656 276.75 182.867188 276.585938 C 181.089844 276.414062 179.441406 275.839844 177.761719 275.296875 C 176.234375 274.808594 174.859375 274.039062 173.503906 273.257812 C 172.757812 272.835938 172.007812 272.523438 171.238281 272.414062 C 169.222656 272.132812 167.25 271.699219 165.253906 271.351562 C 163.640625 271.070312 161.992188 271.027344 160.367188 270.789062 C 158.351562 270.496094 156.3125 270.453125 154.296875 270.214844 C 152.617188 270.019531 150.949219 270.160156 149.289062 270.007812 C 144 269.53125 138.691406 269.597656 133.414062 269.824219 C 128.199219 270.039062 122.984375 269.78125 117.792969 270.074219 C 115.863281 270.179688 113.914062 270.039062 112.007812 270.320312 C 110.328125 270.570312 108.644531 270.320312 107 270.582031 C 105.40625 270.832031 103.8125 270.59375 102.261719 270.84375 C 100.757812 271.089844 99.25 270.851562 97.785156 271.101562 C 96.367188 271.339844 94.945312 271.125 93.570312 271.363281 C 92.238281 271.589844 90.902344 271.382812 89.613281 271.621094 C 88.367188 271.851562 87.132812 271.699219 85.917969 271.859375 C 83.902344 272.144531 81.863281 272.195312 79.835938 272.371094 C 78.15625 272.511719 76.488281 272.707031 74.808594 272.890625 C 73.300781 273.054688 71.796875 273.195312 70.3125 273.421875 C 68.773438 273.671875 67.234375 273.832031 65.683594 273.964844 C 63.90625 274.105469 62.148438 274.496094 60.371094 274.710938 C 59.148438 274.863281 57.890625 274.777344 56.6875 275.015625 C 55.539062 275.242188 54.367188 275.113281 53.21875 275.46875 C 52.351562 275.742188 51.375 275.6875 50.453125 275.761719 C 49.359375 275.859375 48.234375 275.816406 47.160156 276.054688 C 45.695312 276.371094 44.191406 276.328125 42.75 276.792969 C 42.042969 277.019531 41.253906 276.964844 40.503906 277.085938 C 38.867188 277.335938 37.230469 277.628906 35.585938 277.867188 C 34.707031 277.996094 33.816406 278.015625 32.941406 278.148438 C 31.996094 278.289062 31.074219 278.558594 30.144531 278.644531 C 29.144531 278.734375 28.128906 278.753906 27.128906 278.636719 C 26.113281 278.515625 25.808594 277.574219 26.339844 276.488281 C 26.695312 275.761719 27.066406 275.046875 27.445312 274.332031 C 28.570312 272.21875 29.675781 270.09375 30.847656 268.011719 C 31.746094 266.421875 32.605469 264.804688 32.992188 263.007812 C 33.113281 262.433594 33.320312 261.78125 33.15625 261.261719 C 32.777344 260.070312 33.082031 258.867188 32.917969 257.695312 C 32.59375 255.203125 32.898438 252.675781 32.613281 250.207031 C 32.277344 247.257812 32.550781 244.332031 32.398438 241.394531 C 32.320312 239.941406 32.417969 238.5 32.203125 237.039062 C 31.996094 235.671875 32.300781 234.230469 32.417969 232.832031 C 32.441406 232.613281 32.691406 232.429688 32.84375 232.226562 C 33.980469 230.644531 35.128906 229.070312 36.257812 227.476562 C 36.320312 227.390625 36.246094 227.066406 36.203125 227.054688 C 35.746094 226.988281 35.476562 226.75 35.550781 226.285156 C 35.617188 225.839844 35.648438 225.332031 35.898438 224.996094 C 36.894531 223.652344 37.992188 222.363281 39.03125 221.039062 C 40.503906 219.164062 41.859375 217.179688 43.429688 215.402344 C 45.058594 213.570312 46.207031 211.382812 47.996094 209.703125 C 48.222656 209.484375 48.222656 209.269531 47.820312 209.191406 C 46.933594 209.03125 46.042969 208.835938 45.15625 208.671875 C 44.351562 208.53125 43.550781 208.402344 42.824219 207.96875 C 41.957031 207.4375 41.871094 206.972656 42.554688 206.246094 C 43.820312 204.890625 45.046875 203.503906 46.367188 202.191406 C 48.082031 200.488281 49.902344 198.875 51.613281 197.171875 C 53.144531 195.644531 54.5625 194.019531 56.078125 192.480469 C 57.195312 191.351562 58.410156 190.3125 59.570312 189.21875 C 59.734375 189.066406 59.796875 188.804688 59.90625 188.589844 C 59.699219 188.558594 59.503906 188.503906 59.300781 188.480469 C 57.359375 188.308594 55.417969 188.210938 53.488281 187.9375 C 50.910156 187.582031 48.332031 187.136719 45.773438 186.628906 C 44.449219 186.367188 43.140625 186.183594 41.792969 186.097656 C 41.175781 186.054688 40.484375 185.792969 40.007812 185.414062 C 39.441406 184.96875 39.636719 184.167969 39.824219 183.605469 C 40.332031 182.03125 40.972656 180.503906 41.589844 178.964844 C 42.46875 176.765625 43.617188 174.707031 45.003906 172.777344 C 45.707031 171.789062 46.433594 170.8125 47.226562 169.894531 C 48.710938 168.179688 50.226562 166.5 51.753906 164.820312 C 53.035156 163.421875 54.347656 162.046875 55.644531 160.667969 C 57.402344 158.816406 59.136719 156.953125 60.9375 155.132812 C 68.003906 147.957031 75.070312 140.792969 82.15625 133.648438 C 83.890625 131.902344 85.65625 130.171875 87.523438 128.566406 C 89.710938 126.667969 92.019531 124.902344 94.285156 123.082031 C 96.410156 121.378906 98.511719 119.636719 100.703125 118 C 102.445312 116.699219 104.320312 115.550781 106.109375 114.300781 C 107.617188 113.25 109.078125 113.5 110.597656 114.238281 C 112.558594 115.191406 114.542969 116.089844 116.515625 117.023438 C 118.671875 118.042969 120.863281 118.996094 122.964844 120.121094 C 123.65625 120.503906 123.777344 120.242188 124.070312 119.777344 C 125.652344 117.238281 127.257812 114.714844 128.871094 112.199219 C 130.386719 109.835938 131.625 107.324219 132.792969 104.785156 C 133.714844 102.792969 134.703125 100.832031 134.90625 98.585938 C 134.953125 98.121094 135.179688 97.65625 135.363281 97.210938 C 135.722656 96.386719 136.46875 96.214844 137.140625 96.796875 C 138.496094 97.957031 139.882812 99.097656 141.183594 100.332031 C 142.851562 101.914062 144.566406 103.496094 146.0625 105.242188 C 148.226562 107.757812 150.210938 110.410156 152.292969 113.003906 C 153.539062 114.550781 154.882812 116.015625 156.074219 117.597656 C 157.84375 119.972656 159.675781 122.28125 161.417969 124.675781 C 163.371094 127.351562 165.289062 130.050781 167.109375 132.816406 C 168.464844 134.863281 169.742188 136.953125 171 139.058594 C 172.507812 141.570312 174.035156 144.074219 175.433594 146.65625 C 176.765625 149.105469 177.949219 151.640625 179.171875 154.144531 C 181.070312 158.035156 182.640625 162.046875 184.222656 166.078125 C 185.609375 169.621094 186.683594 173.265625 188.039062 176.820312 C 188.472656 177.957031 188.589844 179.203125 188.894531 180.394531 C 188.960938 180.667969 189.144531 180.90625 189.273438 181.152344 C 189.402344 180.949219 189.554688 180.753906 189.675781 180.546875 C 189.976562 179.972656 190.238281 179.375 190.585938 178.824219 C 191.929688 176.667969 193.230469 174.476562 194.671875 172.398438 C 196.1875 170.207031 197.859375 168.117188 199.472656 165.992188 C 201.140625 163.78125 202.960938 161.6875 204.933594 159.738281 C 207.765625 156.941406 210.527344 154.089844 213.378906 151.316406 C 215.699219 149.074219 218.082031 146.894531 220.476562 144.738281 C 222.339844 143.058594 224.226562 141.410156 226.179688 139.828125 C 228.355469 138.070312 230.621094 136.425781 232.832031 134.710938 C 236.128906 132.175781 239.757812 130.160156 243.238281 127.90625 C 247.898438 124.890625 252.90625 122.5625 257.835938 120.089844 C 260.253906 118.875 262.746094 117.824219 265.195312 116.664062 C 266.226562 116.175781 267.222656 115.625 268.199219 115.050781 C 268.65625 114.78125 268.992188 114.832031 269.46875 115.050781 C 270.984375 115.734375 272.339844 116.609375 273.640625 117.652344 C 275.785156 119.375 278.007812 121.011719 280.207031 122.671875 C 281.574219 123.699219 282.960938 124.6875 284.304688 125.738281 C 286.0625 127.101562 287.804688 128.5 289.519531 129.910156 C 290.375 130.613281 291.1875 131.375 292.011719 132.132812 C 293.464844 133.488281 294.917969 134.839844 296.347656 136.207031 C 298.515625 138.265625 300.691406 140.316406 302.804688 142.429688 C 304.183594 143.792969 305.503906 145.226562 306.796875 146.675781 C 308.34375 148.421875 309.851562 150.199219 311.335938 152 C 313.179688 154.242188 315.019531 156.484375 316.800781 158.773438 C 319.476562 162.199219 322.328125 165.492188 324.785156 169.089844 C 326.609375 171.757812 328.589844 174.304688 330.304688 177.035156 C 331.59375 179.085938 332.578125 181.328125 333.664062 183.496094 C 334.054688 184.277344 333.21875 185.53125 332.296875 185.609375 C 331.03125 185.71875 329.738281 185.726562 328.484375 185.890625 C 326.964844 186.085938 325.46875 186.410156 323.953125 186.660156 C 323.203125 186.78125 322.445312 186.824219 321.707031 186.929688 C 320.363281 187.125 319.03125 187.460938 317.699219 187.636719 C 316.453125 187.796875 315.214844 187.992188 313.992188 188.242188 C 312.105469 188.621094 310.21875 189.042969 308.34375 189.476562 C 306.394531 189.921875 304.441406 190.378906 302.503906 190.867188 C 300.128906 191.460938 297.746094 192.015625 295.414062 192.742188 C 292.367188 193.695312 289.355469 194.757812 286.355469 195.851562 C 283.925781 196.738281 281.550781 197.746094 279.167969 198.746094 C 271.546875 201.921875 264.199219 205.683594 256.882812 209.484375 C 253.707031 211.132812 250.621094 212.945312 247.496094 214.675781 C 245.613281 215.730469 243.714844 216.746094 241.871094 217.863281 C 239.5625 219.261719 237.234375 220.648438 235.023438 222.199219 C 232.464844 223.988281 230.003906 225.929688 227.523438 227.835938 C 225.464844 229.417969 223.414062 231.023438 221.398438 232.660156 C 220.078125 233.730469 218.839844 234.890625 217.53125 235.976562 C 216.335938 236.960938 215.089844 237.882812 213.875 238.859375 C 213.183594 239.421875 212.511719 240.019531 211.851562 240.613281 C 210.550781 241.804688 209.257812 243.019531 207.96875 244.222656 C 205.292969 246.726562 202.574219 249.1875 199.949219 251.746094 C 198.03125 253.621094 196.230469 255.613281 194.378906 257.554688 C 194.292969 257.640625 194.269531 257.792969 194.214844 257.921875 C 194.367188 257.878906 194.53125 257.859375 194.660156 257.78125 C 196.4375 256.699219 198.367188 255.875 200.015625 254.550781 C 201.707031 253.199219 203.472656 251.949219 205.207031 250.648438 C 207.003906 249.296875 208.792969 247.929688 210.59375 246.574219 C 211.992188 245.523438 213.390625 244.460938 214.796875 243.433594 C 216.371094 242.273438 217.941406 241.113281 219.535156 240.007812 C 222.277344 238.097656 225.03125 236.214844 227.816406 234.359375 C 228.964844 233.589844 230.210938 232.972656 231.402344 232.269531 C 232.5625 231.585938 233.636719 230.6875 234.882812 230.230469 C 236.574219 229.613281 238.101562 228.722656 239.703125 227.945312 C 243.597656 226.046875 247.5625 224.355469 251.605469 222.804688 C 256.058594 221.105469 260.535156 219.46875 265.097656 218.046875 C 268.320312 217.050781 271.527344 216.011719 274.800781 215.199219 C 276.859375 214.6875 278.886719 214.070312 280.96875 213.648438 C 282.410156 213.355469 283.816406 212.910156 285.257812 212.617188 C 287.242188 212.21875 289.246094 211.902344 291.242188 211.554688 C 293.234375 211.210938 295.230469 210.808594 297.234375 210.527344 C 298.949219 210.277344 300.671875 210.191406 302.382812 209.972656 C 304.160156 209.746094 305.917969 209.433594 307.695312 209.203125 C 308.875 209.0625 310.078125 209.117188 311.25 208.902344 C 312.527344 208.671875 313.863281 208.890625 315.109375 208.414062 C 315.304688 208.335938 315.542969 208.414062 315.757812 208.402344 C 317.253906 208.316406 318.75 208.238281 320.234375 208.140625 C 321.070312 208.085938 321.914062 207.96875 322.75 207.882812 C 323.582031 207.796875 324.429688 207.707031 325.265625 207.621094 C 325.351562 207.609375 325.480469 207.652344 325.523438 207.609375 C 326.28125 206.710938 327.289062 207.167969 328.199219 207.113281 C 329.285156 207.046875 330.390625 207.132812 331.472656 207.089844 C 333.101562 207.035156 334.726562 206.929688 336.339844 206.832031 C 336.460938 206.820312 336.566406 206.765625 336.6875 206.722656 C 336.644531 206.570312 336.644531 206.375 336.546875 206.277344 C 334.519531 204.328125 332.503906 202.355469 330.445312 200.445312 C 329.394531 199.472656 328.265625 198.5625 327.140625 197.660156 C 325.695312 196.523438 324.234375 195.40625 322.761719 194.324219 C 321.265625 193.21875 319.734375 192.144531 318.207031 191.082031 C 317.4375 190.539062 316.625 190.042969 315.855469 189.5 C 315.507812 189.261719 315.261719 188.871094 315.605469 188.535156 C 315.835938 188.308594 316.332031 188.167969 316.636719 188.253906 C 317.210938 188.414062 317.773438 188.707031 318.261719 189.042969 C 320.917969 190.875 323.574219 192.707031 326.183594 194.605469 C 328.339844 196.164062 330.421875 197.824219 332.339844 199.6875 C 334.042969 201.347656 335.796875 202.949219 337.5 204.609375 C 337.957031 205.042969 338.34375 205.5625 338.703125 206.070312 C 339.070312 206.601562 338.746094 207.492188 338.214844 207.882812 C 337.554688 208.371094 336.773438 208.519531 336.035156 208.617188 C 334.519531 208.824219 332.96875 208.835938 331.429688 208.910156 C 331.128906 208.933594 330.8125 208.890625 330.53125 208.953125 C 330.304688 209.007812 330.121094 209.183594 329.914062 209.3125 C 330.074219 209.441406 330.238281 209.574219 330.410156 209.703125 C 331.625 210.625 332.816406 211.492188 334.066406 212.433594 M 298.882812 189.824219 C 299.011719 189.824219 299.144531 189.859375 299.273438 189.824219 C 301.289062 189.304688 303.285156 188.753906 305.308594 188.265625 C 307.023438 187.851562 308.757812 187.503906 310.480469 187.148438 C 312.171875 186.800781 313.871094 186.476562 315.574219 186.160156 C 316.753906 185.945312 317.949219 185.769531 319.128906 185.566406 C 320.472656 185.335938 321.804688 185.046875 323.148438 184.859375 C 324.246094 184.710938 325.359375 184.753906 326.445312 184.566406 C 327.984375 184.296875 329.511719 184.058594 331.085938 184.058594 C 331.917969 184.058594 331.972656 183.992188 331.5625 183.203125 C 330.5625 181.296875 329.597656 179.375 328.492188 177.535156 C 327.476562 175.84375 326.324219 174.226562 325.167969 172.625 C 323.820312 170.761719 322.425781 168.949219 321.027344 167.128906 C 319.550781 165.199219 318.066406 163.28125 316.550781 161.386719 C 315.628906 160.226562 314.621094 159.128906 313.699219 157.980469 C 312.375 156.355469 311.109375 154.6875 309.785156 153.050781 C 309.148438 152.257812 308.421875 151.523438 307.757812 150.742188 C 306.242188 148.976562 304.824219 147.101562 303.195312 145.441406 C 300.28125 142.460938 297.257812 139.589844 294.234375 136.714844 C 292.597656 135.15625 290.882812 133.660156 289.171875 132.175781 C 287.511719 130.734375 285.84375 129.28125 284.121094 127.914062 C 282.527344 126.660156 280.835938 125.507812 279.210938 124.285156 C 277.703125 123.15625 276.21875 122.007812 274.734375 120.859375 C 273.207031 119.6875 271.710938 118.484375 270.148438 117.359375 C 269.585938 116.945312 268.96875 116.816406 268.1875 117.207031 C 264.449219 119.039062 260.632812 120.707031 256.90625 122.550781 C 253.925781 124.015625 251 125.597656 248.09375 127.210938 C 245.632812 128.578125 243.171875 129.964844 240.855469 131.546875 C 237.113281 134.082031 233.222656 136.402344 229.808594 139.382812 C 228.03125 140.933594 226.136719 142.332031 224.335938 143.847656 C 222.765625 145.171875 221.234375 146.535156 219.730469 147.921875 C 217.128906 150.320312 214.527344 152.703125 211.992188 155.164062 C 210.410156 156.691406 209.011719 158.414062 207.429688 159.945312 C 204.554688 162.707031 201.953125 165.699219 199.570312 168.886719 C 198.453125 170.378906 197.335938 171.875 196.296875 173.425781 C 194.726562 175.734375 193.164062 178.054688 191.710938 180.4375 C 190.695312 182.109375 189.835938 183.886719 189.738281 185.902344 C 189.675781 187.484375 189.566406 189.066406 189.523438 190.636719 C 189.261719 198.332031 189.761719 206.027344 189.230469 213.722656 C 189.121094 215.339844 189.230469 216.964844 189.425781 218.601562 C 189.707031 220.941406 189.339844 223.328125 189.695312 225.699219 C 189.96875 227.46875 189.675781 229.289062 189.945312 231.097656 C 190.226562 232.953125 190.140625 234.871094 190.195312 236.746094 C 190.378906 243.300781 190.164062 249.871094 190.519531 256.417969 C 190.53125 256.675781 190.464844 256.957031 190.53125 257.195312 C 190.640625 257.566406 190.84375 257.902344 191.007812 258.25 C 191.300781 258.105469 191.648438 258.019531 191.863281 257.804688 C 193.1875 256.4375 194.464844 255.039062 195.765625 253.664062 C 197.152344 252.1875 198.53125 250.695312 199.9375 249.242188 C 200.554688 248.601562 201.292969 248.070312 201.953125 247.476562 C 203.289062 246.25 204.632812 245.035156 205.921875 243.769531 C 208.175781 241.546875 210.539062 239.453125 213.011719 237.460938 C 214.789062 236.019531 216.488281 234.488281 218.253906 233.027344 C 220.066406 231.519531 221.917969 230.058594 223.75 228.574219 C 225.191406 227.402344 226.570312 226.144531 228.074219 225.070312 C 231.433594 222.675781 234.632812 220.042969 238.242188 218.003906 C 240.90625 216.5 243.445312 214.785156 246.132812 213.324219 C 248.375 212.097656 250.554688 210.777344 252.863281 209.660156 C 255.269531 208.488281 257.546875 207.046875 259.941406 205.867188 C 264.65625 203.535156 269.402344 201.304688 274.140625 199.039062 C 275.234375 198.515625 276.296875 197.921875 277.421875 197.476562 C 279.785156 196.535156 282.214844 195.742188 284.554688 194.757812 C 288.054688 193.273438 291.675781 192.101562 295.285156 190.917969 C 296.367188 190.507812 297.496094 190.171875 298.882812 189.824219 M 167.824219 269.25 C 168.34375 269.25 169.015625 269.457031 169.363281 269.207031 C 170.078125 268.695312 170.457031 269.207031 170.914062 269.476562 C 171.933594 270.0625 172.789062 270.941406 173.992188 271.234375 C 174.21875 271.285156 174.457031 271.4375 174.621094 271.601562 C 175.738281 272.707031 177.1875 273.160156 178.597656 273.703125 C 181.394531 274.765625 184.34375 275.179688 187.28125 275.492188 C 189.132812 275.6875 191.0625 275.785156 192.925781 275.273438 C 193.46875 275.125 194 274.863281 194.550781 274.765625 C 196.558594 274.410156 198.300781 273.433594 199.992188 272.414062 C 201.238281 271.667969 202.3125 270.625 203.492188 269.769531 C 204.046875 269.367188 204.644531 269.023438 205.390625 268.96875 C 206.765625 268.871094 208.132812 268.640625 209.5 268.46875 C 210.160156 268.382812 210.832031 268.328125 211.480469 268.199219 C 212.769531 267.960938 214.050781 267.644531 215.351562 267.429688 C 217.117188 267.136719 218.882812 266.875 220.660156 266.636719 C 222.730469 266.355469 224.8125 266.09375 226.882812 265.855469 C 228.640625 265.652344 230.40625 265.414062 232.171875 265.347656 C 234.46875 265.269531 236.746094 265.066406 239.03125 264.816406 C 240.257812 264.6875 241.492188 264.6875 242.730469 264.589844 C 245.253906 264.394531 247.800781 264.480469 250.347656 264.308594 C 254.542969 264.023438 258.75 264.425781 262.953125 264.058594 C 266.734375 263.730469 270.5625 263.980469 274.378906 263.808594 C 279.871094 263.558594 285.378906 263.6875 290.882812 263.765625 C 296.347656 263.839844 301.820312 263.472656 307.292969 263.992188 C 309.6875 264.21875 312.117188 263.839844 314.523438 264.230469 C 315.941406 264.457031 317.417969 264.316406 318.867188 264.480469 C 320.582031 264.675781 322.304688 264.761719 324.015625 265.03125 C 325.71875 265.304688 327.453125 265.519531 329.164062 265.554688 C 331.808594 265.605469 334.445312 265.769531 337.078125 266.074219 C 338.367188 266.214844 339.667969 266.226562 340.925781 266.617188 C 341.238281 266.714844 341.53125 266.636719 341.46875 266.171875 C 341.371094 265.554688 341.230469 264.933594 341.21875 264.316406 C 341.175781 262.917969 341.175781 261.519531 341.21875 260.125 C 341.238281 259.355469 341.066406 258.726562 340.503906 258.183594 C 340.070312 257.75 340.113281 257.304688 340.699219 256.957031 C 341.164062 256.6875 341.195312 256.351562 341.207031 255.90625 C 341.347656 250.3125 340.894531 244.699219 341.46875 239.105469 C 341.542969 238.402344 341.511719 237.710938 341.683594 236.972656 C 342.097656 235.238281 342.183594 233.429688 342.5625 231.683594 C 342.660156 231.238281 342.617188 231.097656 342.300781 230.980469 C 341.964844 230.847656 341.597656 230.761719 341.230469 230.707031 C 339.863281 230.523438 338.496094 230.351562 337.121094 230.175781 C 334.910156 229.90625 332.710938 229.558594 330.5 229.417969 C 328.644531 229.296875 326.804688 229.070312 324.949219 228.898438 C 322.8125 228.691406 320.65625 228.59375 318.511719 228.625 C 315.183594 228.679688 311.847656 228.324219 308.527344 228.855469 C 307.085938 229.09375 305.625 229.222656 304.160156 229.386719 C 302.492188 229.570312 300.8125 229.742188 299.132812 229.917969 C 298.253906 230.003906 297.367188 230.058594 296.5 230.199219 C 295.199219 230.414062 293.917969 230.730469 292.617188 230.957031 C 291.382812 231.171875 290.09375 231.164062 288.921875 231.53125 C 287.601562 231.953125 286.234375 231.988281 284.914062 232.257812 C 283.644531 232.519531 282.34375 232.582031 281.074219 232.808594 C 279.417969 233.113281 277.78125 233.503906 276.132812 233.851562 C 275.125 234.058594 274.09375 234.1875 273.109375 234.480469 C 272.492188 234.664062 271.992188 234.816406 271.484375 234.285156 C 271.363281 234.152344 271.082031 234.089844 270.910156 234.132812 C 270.117188 234.328125 269.347656 234.578125 268.566406 234.792969 C 266.300781 235.445312 264.039062 236.105469 261.773438 236.734375 C 258.988281 237.492188 256.191406 238.230469 253.394531 238.964844 C 251.585938 239.445312 249.761719 239.910156 247.964844 240.40625 C 245.851562 240.992188 243.746094 241.621094 241.644531 242.238281 C 239.890625 242.761719 238.144531 243.28125 236.398438 243.8125 C 232.941406 244.851562 229.472656 245.847656 226.027344 246.945312 C 222.246094 248.136719 218.460938 249.328125 214.722656 250.660156 C 211.644531 251.753906 208.609375 252.992188 205.605469 254.269531 C 202.28125 255.691406 199.136719 257.480469 196.046875 259.355469 C 195.136719 259.90625 194.183594 260.394531 193.347656 261.042969 C 192.417969 261.769531 191.082031 260.859375 190.292969 261.910156 C 189.554688 261.390625 188.578125 261.867188 187.808594 261.25 C 186.988281 260.589844 186.054688 260.035156 185.101562 259.582031 C 184.015625 259.0625 182.835938 258.734375 181.730469 258.238281 C 179.886719 257.414062 178.078125 256.515625 176.234375 255.667969 C 173.375 254.355469 170.5 253.054688 167.628906 251.777344 C 166.113281 251.105469 164.59375 250.464844 163.054688 249.859375 C 161.289062 249.164062 159.5 248.535156 157.722656 247.875 C 155.035156 246.878906 152.359375 245.839844 149.660156 244.882812 C 147.070312 243.964844 144.457031 243.105469 141.832031 242.261719 C 139.058594 241.363281 136.296875 240.417969 133.476562 239.660156 C 130.84375 238.957031 128.222656 238.207031 125.566406 237.578125 C 124.785156 237.394531 123.777344 236.691406 122.996094 237.773438 C 122.929688 237.859375 122.660156 237.816406 122.496094 237.796875 C 121.585938 237.6875 120.667969 237.613281 119.765625 237.4375 C 117.871094 237.070312 115.996094 236.613281 114.109375 236.234375 C 112.972656 236.007812 111.8125 235.886719 110.664062 235.683594 C 108.875 235.355469 107.097656 235.011719 105.320312 234.652344 C 104.148438 234.425781 102.988281 234.132812 101.816406 233.9375 C 100.507812 233.710938 99.183594 233.527344 97.863281 233.351562 C 96.941406 233.234375 95.996094 233.242188 95.085938 233.070312 C 93.679688 232.789062 92.28125 232.539062 90.851562 232.5625 C 90.675781 232.5625 90.492188 232.59375 90.328125 232.5625 C 88.886719 232.234375 87.4375 232.019531 85.960938 232.039062 C 85.613281 232.039062 85.234375 232.128906 84.921875 232.03125 C 83.230469 231.476562 81.441406 232.039062 79.761719 231.519531 C 74.515625 231.683594 69.257812 231.25 64.015625 231.757812 C 61.53125 231.996094 59.015625 231.585938 56.523438 232.019531 C 55.355469 232.226562 54.152344 232.136719 52.957031 232.234375 C 50.714844 232.421875 48.472656 232.484375 46.238281 232.808594 C 44.699219 233.039062 43.128906 233.070312 41.609375 233.363281 C 39.410156 233.796875 37.230469 234.394531 35.054688 234.914062 C 34.035156 235.152344 34.011719 235.140625 34.023438 236.074219 C 34.054688 238.089844 34.046875 240.105469 34.242188 242.132812 C 34.542969 245.4375 34.054688 248.785156 34.511719 252.113281 C 34.761719 253.933594 34.578125 255.789062 34.738281 257.640625 C 34.957031 260.089844 34.964844 262.574219 35.300781 265.023438 C 35.496094 266.453125 35.542969 267.914062 35.5625 269.367188 C 35.574219 269.964844 35.78125 270.128906 36.300781 270.039062 C 36.503906 270.007812 36.699219 269.953125 36.894531 269.910156 C 38.378906 269.605469 39.867188 269.261719 41.371094 269.011719 C 42.683594 268.78125 44.027344 268.695312 45.351562 268.46875 C 47.136719 268.164062 48.894531 267.722656 50.683594 267.449219 C 52.796875 267.125 54.921875 266.898438 57.035156 266.660156 C 58.789062 266.464844 60.554688 266.214844 62.324219 266.148438 C 64.359375 266.074219 66.375 265.847656 68.390625 265.628906 C 69.832031 265.476562 71.285156 265.511719 72.738281 265.390625 C 75.839844 265.121094 78.949219 265.433594 82.070312 265.128906 C 85.59375 264.792969 89.148438 265.152344 92.703125 264.882812 C 97.40625 264.523438 102.144531 264.933594 106.878906 264.632812 C 110.054688 264.425781 113.261719 264.371094 116.472656 264.792969 C 118.554688 265.066406 120.667969 264.804688 122.789062 265.03125 C 125.066406 265.269531 127.363281 265.292969 129.652344 265.597656 C 131.125 265.792969 132.632812 265.792969 134.128906 265.878906 C 134.300781 265.890625 134.484375 265.847656 134.648438 265.890625 C 136.175781 266.226562 137.714844 266.429688 139.277344 266.410156 C 139.492188 266.410156 139.773438 266.324219 139.925781 266.421875 C 140.523438 266.820312 141.171875 266.605469 141.789062 266.667969 C 142.410156 266.746094 143.027344 266.875 143.644531 266.917969 C 145.054688 267.027344 146.472656 266.972656 147.847656 267.234375 C 148.78125 267.40625 149.746094 267.253906 150.613281 267.503906 C 151.339844 267.710938 152.042969 267.644531 152.75 267.722656 C 153.496094 267.796875 154.242188 267.914062 155.003906 267.980469 C 156.226562 268.089844 157.472656 268.066406 158.6875 268.273438 C 160.226562 268.523438 161.777344 268.640625 163.316406 268.816406 C 164.59375 268.957031 165.863281 269.023438 167.140625 269.042969 C 167.28125 269 167.421875 269.164062 167.824219 269.25 M 187.875 183.136719 C 187.875 182.921875 187.929688 182.683594 187.863281 182.488281 C 187.386719 180.894531 186.898438 179.3125 186.390625 177.730469 C 185.003906 173.425781 183.582031 169.125 181.847656 164.941406 C 180.601562 161.914062 179.488281 158.835938 178.121094 155.867188 C 176.875 153.148438 175.421875 150.515625 173.96875 147.890625 C 172.464844 145.179688 170.761719 142.589844 169.289062 139.871094 C 167.261719 136.152344 164.820312 132.707031 162.46875 129.207031 C 161.007812 127.027344 159.347656 124.988281 157.765625 122.898438 C 155.828125 120.339844 153.898438 117.761719 151.925781 115.234375 C 150.699219 113.675781 149.398438 112.167969 148.132812 110.640625 C 146.777344 109.011719 145.421875 107.398438 144.054688 105.773438 C 143.859375 105.546875 143.601562 105.359375 143.417969 105.121094 C 141.734375 102.878906 139.621094 101.089844 137.433594 99.390625 C 136.976562 99.03125 136.773438 98.921875 136.761719 99.636719 C 136.761719 99.824219 136.542969 99.996094 136.523438 100.191406 C 136.21875 102.273438 135.15625 104.082031 134.386719 105.988281 C 133.835938 107.375 133.054688 108.675781 132.308594 109.976562 C 130.929688 112.382812 129.574219 114.8125 128.058594 117.132812 C 125.621094 120.859375 123.265625 124.640625 120.527344 128.164062 C 118.996094 130.136719 117.566406 132.195312 116.015625 134.160156 C 114.628906 135.914062 113.078125 137.5625 111.691406 139.316406 C 110.46875 140.878906 109.296875 142.503906 108.214844 144.164062 C 106.628906 146.589844 105.1875 149.117188 103.605469 151.554688 C 101.625 154.601562 99.800781 157.730469 98.164062 160.972656 C 96.765625 163.746094 95.488281 166.585938 94.175781 169.40625 C 94.078125 169.609375 94.121094 169.871094 94.113281 170.109375 C 94.351562 170.089844 94.589844 170.097656 94.816406 170.054688 C 95.8125 169.839844 96.820312 169.632812 97.820312 169.382812 C 99 169.089844 100.203125 168.984375 101.394531 168.832031 C 102.890625 168.636719 104.386719 168.332031 105.90625 168.355469 C 107.226562 168.375 108.539062 168.503906 109.859375 168.601562 C 110.738281 168.667969 111.628906 168.753906 112.503906 168.875 C 113.070312 168.949219 113.644531 169.070312 114.195312 169.222656 C 116.265625 169.785156 118.359375 170.292969 120.308594 171.226562 C 122.421875 172.234375 124.589844 173.167969 126.617188 174.347656 C 128.460938 175.429688 130.226562 176.667969 131.949219 177.980469 C 134.367188 179.820312 136.792969 181.640625 138.960938 183.777344 C 141.421875 186.195312 143.882812 188.609375 146.027344 191.320312 C 147.46875 193.152344 149.0625 194.863281 150.546875 196.664062 C 152 198.410156 153.386719 200.207031 154.816406 201.964844 C 155.675781 203.015625 156.574219 204.023438 157.398438 205.085938 C 159 207.167969 160.550781 209.28125 162.132812 211.371094 C 163.792969 213.570312 165.558594 215.695312 167.109375 217.960938 C 169.65625 221.691406 172.117188 225.484375 174.5 229.308594 C 176.265625 232.136719 177.796875 235.117188 179.5625 237.949219 C 181.558594 241.125 183.289062 244.429688 185.015625 247.746094 C 186.152344 249.933594 187.570312 251.996094 188.179688 254.433594 C 188.210938 254.574219 188.417969 254.683594 188.535156 254.800781 C 188.578125 254.648438 188.675781 254.507812 188.675781 254.355469 C 188.546875 250.8125 188.828125 247.269531 188.472656 243.714844 C 188.15625 240.496094 188.601562 237.230469 188.179688 233.992188 C 187.972656 232.386719 188.179688 230.75 187.953125 229.113281 C 187.648438 226.871094 187.660156 224.5625 187.648438 222.285156 C 187.617188 216.171875 187.605469 210.058594 187.648438 203.9375 C 187.691406 197.378906 187.808594 190.820312 187.90625 184.253906 C 187.886719 183.949219 187.960938 183.613281 187.875 183.136719 M 109.761719 138.851562 C 109.882812 138.644531 109.980469 138.40625 110.132812 138.222656 C 111.972656 136.011719 113.871094 133.84375 115.667969 131.601562 C 116.894531 130.082031 118.03125 128.480469 119.191406 126.90625 C 120.167969 125.574219 121.101562 124.199219 122.085938 122.863281 C 122.660156 122.09375 122.648438 121.902344 121.78125 121.421875 C 121.609375 121.324219 121.425781 121.238281 121.242188 121.164062 C 119.148438 120.199219 117.058594 119.246094 114.964844 118.28125 C 113.132812 117.433594 111.300781 116.589844 109.460938 115.753906 C 108.539062 115.332031 107.691406 115.332031 106.859375 116.046875 C 106.304688 116.523438 105.601562 116.816406 105.003906 117.238281 C 103.28125 118.464844 101.558594 119.699219 99.878906 120.980469 C 98.402344 122.105469 97.070312 123.417969 95.554688 124.46875 C 92.484375 126.59375 89.765625 129.117188 86.980469 131.558594 C 84.402344 133.8125 82.003906 136.273438 79.566406 138.667969 C 78.710938 139.503906 77.996094 140.488281 77.140625 141.324219 C 74.234375 144.183594 71.277344 146.992188 68.371094 149.863281 C 67.210938 151.011719 66.136719 152.257812 65.023438 153.449219 C 63.753906 154.804688 62.496094 156.160156 61.21875 157.515625 C 59.429688 159.402344 57.628906 161.265625 55.851562 163.152344 C 54.757812 164.3125 53.664062 165.472656 52.613281 166.664062 C 50.898438 168.601562 49.1875 170.566406 47.519531 172.546875 C 46.421875 173.839844 45.511719 175.257812 44.777344 176.777344 C 44.113281 178.121094 43.484375 179.472656 42.890625 180.839844 C 42.511719 181.730469 42.183594 182.648438 41.902344 183.570312 C 41.839844 183.777344 41.601562 184.296875 42.25 184.328125 C 44.039062 184.417969 45.804688 184.761719 47.5625 185.097656 C 49.316406 185.433594 51.117188 185.53125 52.859375 185.933594 C 54.660156 186.347656 56.511719 186.292969 58.3125 186.683594 C 58.84375 186.800781 59.40625 186.78125 59.960938 186.8125 C 60.546875 186.84375 61.316406 187.125 61.683594 186.855469 C 62.464844 186.292969 62.507812 187.398438 63.125 187.265625 C 63.828125 187.125 64.621094 187.363281 65.359375 187.503906 C 66.527344 187.734375 67.675781 188.046875 68.835938 188.253906 C 70.460938 188.558594 72.121094 188.730469 73.734375 189.089844 C 75.363281 189.433594 76.945312 190.0625 78.582031 190.335938 C 81.34375 190.777344 83.96875 191.710938 86.675781 192.339844 C 89.09375 192.902344 91.46875 193.628906 93.851562 194.300781 C 96.464844 195.050781 99.097656 195.765625 101.6875 196.589844 C 105.808594 197.910156 109.925781 199.210938 113.957031 200.816406 C 116.625 201.878906 119.289062 202.917969 121.871094 204.1875 C 125.46875 205.953125 129.023438 207.804688 132.578125 209.636719 C 134.160156 210.449219 135.753906 211.253906 137.3125 212.128906 C 140.542969 213.941406 143.753906 215.773438 146.960938 217.636719 C 148.476562 218.515625 149.984375 219.425781 151.449219 220.398438 C 153.984375 222.089844 156.507812 223.824219 158.992188 225.59375 C 160.292969 226.511719 161.527344 227.53125 162.742188 228.550781 C 164.148438 229.722656 165.503906 230.957031 166.882812 232.160156 C 168.960938 233.980469 171.121094 235.738281 173.125 237.644531 C 176.375 240.742188 179.488281 243.996094 182.414062 247.410156 C 182.519531 247.539062 182.714844 247.59375 182.867188 247.679688 C 182.855469 247.476562 182.933594 247.203125 182.824219 247.074219 C 182.023438 246.121094 181.578125 244.972656 180.972656 243.910156 C 179.476562 241.285156 177.902344 238.707031 176.355469 236.125 C 175.28125 234.339844 174.207031 232.550781 173.113281 230.792969 C 171.855469 228.777344 170.492188 226.828125 169.289062 224.777344 C 167.488281 221.710938 165.351562 218.882812 163.292969 216 C 162.15625 214.417969 161.019531 212.824219 159.835938 211.273438 C 158.460938 209.476562 157.027344 207.707031 155.609375 205.953125 C 154.699219 204.835938 153.746094 203.761719 152.835938 202.648438 C 151.523438 201.011719 150.253906 199.339844 148.933594 197.714844 C 148 196.566406 147.027344 195.449219 146.0625 194.3125 C 144.554688 192.535156 143.089844 190.714844 141.507812 189 C 139.851562 187.214844 138.0625 185.53125 136.339844 183.796875 C 136.121094 183.582031 135.925781 183.34375 135.6875 183.160156 C 133.898438 181.792969 132.132812 180.382812 130.289062 179.09375 C 128.242188 177.652344 126.195312 176.179688 124.003906 174.976562 C 121.921875 173.828125 119.691406 172.9375 117.480469 172.082031 C 116.199219 171.582031 114.824219 171.300781 113.46875 171.019531 C 111.886719 170.695312 110.28125 170.316406 108.691406 170.261719 C 106.414062 170.1875 104.125 170.328125 101.863281 170.511719 C 100.519531 170.621094 99.183594 170.976562 97.863281 171.28125 C 96.507812 171.59375 95.183594 171.984375 93.839844 172.308594 C 93.277344 172.449219 92.691406 172.527344 92.117188 172.570312 C 91.652344 172.601562 91.414062 172.308594 91.457031 171.84375 C 91.476562 171.5625 91.5 171.246094 91.609375 170.988281 C 92.734375 168.355469 93.851562 165.71875 95.042969 163.109375 C 95.609375 161.851562 96.3125 160.660156 96.960938 159.445312 C 98.015625 157.472656 99.023438 155.476562 100.148438 153.558594 C 101.101562 151.933594 102.285156 150.4375 103.238281 148.800781 C 105.179688 145.386719 107.347656 142.148438 109.761719 138.851562 M 185.914062 256.925781 C 186.542969 257.25 187.183594 257.585938 187.808594 257.914062 C 187.484375 257.195312 187.28125 256.382812 186.8125 255.765625 C 185.070312 253.414062 183.289062 251.082031 181.449219 248.820312 C 180.386719 247.519531 179.214844 246.304688 178.023438 245.121094 C 174.75 241.882812 171.433594 238.683594 168.128906 235.488281 C 167.390625 234.773438 166.621094 234.101562 165.832031 233.449219 C 164.007812 231.953125 162.1875 230.457031 160.335938 229.007812 C 158.699219 227.714844 157.0625 226.414062 155.339844 225.234375 C 153.007812 223.621094 150.632812 222.058594 148.226562 220.585938 C 145.378906 218.839844 142.472656 217.191406 139.578125 215.535156 C 138.277344 214.785156 136.925781 214.144531 135.601562 213.429688 C 132.566406 211.785156 129.574219 210.050781 126.519531 208.46875 C 123.832031 207.078125 121.078125 205.800781 118.3125 204.554688 C 116.179688 203.601562 114.011719 202.699219 111.8125 201.910156 C 108.765625 200.816406 105.6875 199.816406 102.621094 198.800781 C 100.660156 198.148438 98.695312 197.488281 96.714844 196.925781 C 94.285156 196.230469 91.824219 195.644531 89.386719 194.996094 C 87.53125 194.507812 85.703125 193.988281 83.847656 193.511719 C 81.59375 192.9375 79.328125 192.371094 77.0625 191.851562 C 74.789062 191.332031 72.5 190.855469 70.214844 190.355469 C 69.054688 190.105469 67.894531 189.835938 66.710938 189.628906 C 65.402344 189.402344 64.078125 189.238281 62.757812 189.042969 C 62.214844 188.96875 61.757812 189.109375 61.402344 189.574219 C 60.9375 190.183594 60.457031 190.777344 59.917969 191.320312 C 57.488281 193.769531 55.039062 196.207031 52.601562 198.648438 C 52.351562 198.898438 52.101562 199.136719 51.863281 199.394531 C 50.964844 200.371094 50.109375 201.402344 49.164062 202.332031 C 47.789062 203.699219 46.335938 205 44.9375 206.332031 C 44.839844 206.417969 44.828125 206.625 44.828125 206.777344 C 44.828125 206.808594 45.046875 206.851562 45.164062 206.875 C 46.359375 207.046875 47.570312 207.15625 48.742188 207.414062 C 50.5 207.796875 52.222656 208.328125 53.964844 208.695312 C 56.664062 209.269531 59.386719 209.722656 62.09375 210.289062 C 64.425781 210.777344 66.734375 211.308594 69.042969 211.859375 C 70.90625 212.304688 72.769531 212.769531 74.625 213.269531 C 77.0625 213.917969 79.492188 214.601562 81.917969 215.261719 C 84.3125 215.925781 86.710938 216.574219 89.09375 217.246094 C 90.699219 217.703125 92.28125 218.199219 93.875 218.667969 C 96.214844 219.339844 98.578125 219.964844 100.90625 220.683594 C 102.804688 221.265625 104.65625 221.972656 106.53125 222.601562 C 109.914062 223.726562 113.296875 224.8125 116.679688 225.960938 C 118.933594 226.730469 121.144531 227.628906 123.417969 228.355469 C 126.964844 229.492188 130.367188 230.980469 133.824219 232.355469 C 135.4375 232.996094 137.011719 233.742188 138.613281 234.394531 C 141.421875 235.519531 144.261719 236.582031 147.058594 237.730469 C 149.519531 238.738281 151.957031 239.8125 154.40625 240.875 C 157.484375 242.207031 160.5625 243.53125 163.617188 244.894531 C 165.0625 245.535156 166.40625 246.433594 167.878906 246.953125 C 170.425781 247.84375 172.667969 249.316406 175.042969 250.542969 C 177.460938 251.789062 179.789062 253.21875 182.140625 254.59375 C 183.34375 255.289062 184.558594 256.046875 185.914062 256.925781 M 222.210938 240.550781 C 220.542969 241.6875 218.863281 242.8125 217.214844 243.984375 C 215.351562 245.308594 213.519531 246.671875 211.675781 248.015625 C 210.269531 249.046875 208.859375 250.074219 207.460938 251.117188 C 207.351562 251.203125 207.332031 251.410156 207.265625 251.550781 C 207.382812 251.515625 207.515625 251.484375 207.632812 251.441406 C 210.84375 250.21875 214.019531 248.917969 217.246094 247.765625 C 219.957031 246.800781 222.710938 245.988281 225.464844 245.132812 C 228.59375 244.15625 231.738281 243.203125 234.882812 242.25 C 236.582031 241.730469 238.285156 241.167969 239.996094 240.691406 C 242.425781 240.019531 244.886719 239.433594 247.324219 238.761719 C 249.632812 238.121094 251.921875 237.394531 254.230469 236.753906 C 257.523438 235.855469 260.839844 235.011719 264.144531 234.121094 C 266.074219 233.613281 267.992188 233.070312 269.910156 232.550781 C 271.875 232.019531 273.835938 231.464844 275.820312 230.988281 C 277.457031 230.589844 279.136719 230.382812 280.75 229.90625 C 283.621094 229.070312 286.546875 228.507812 289.453125 227.824219 C 291.535156 227.335938 293.636719 226.96875 295.71875 226.480469 C 297.886719 225.972656 300.085938 225.679688 302.265625 225.234375 C 303.53125 224.972656 304.832031 224.910156 306.101562 224.679688 C 307.890625 224.367188 309.644531 223.957031 311.433594 223.652344 C 313.289062 223.335938 315.140625 223.097656 317.003906 222.859375 C 318.585938 222.65625 320.179688 222.46875 321.761719 222.339844 C 323.464844 222.210938 325.1875 222.058594 326.890625 222.089844 C 330.042969 222.15625 333.199219 221.851562 336.351562 222.296875 C 337.890625 222.515625 339.496094 222.339844 341.066406 222.328125 C 341.183594 222.328125 341.304688 222.285156 341.425781 222.253906 C 341.335938 222.132812 341.261719 221.992188 341.164062 221.886719 C 340.707031 221.417969 340.175781 221.007812 339.789062 220.488281 C 338.183594 218.320312 336.320312 216.402344 334.238281 214.6875 C 333.71875 214.265625 333.199219 213.832031 332.667969 213.421875 C 331.550781 212.542969 330.410156 211.6875 329.304688 210.785156 C 328.839844 210.40625 328.492188 209.867188 327.996094 209.550781 C 327.757812 209.398438 327.3125 208.835938 326.933594 209.484375 C 325.925781 209.484375 324.863281 209.269531 323.929688 209.539062 C 322.511719 209.941406 321.089844 209.625 319.671875 209.960938 C 318.242188 210.296875 316.679688 210.070312 315.214844 210.320312 C 314.285156 210.484375 313.363281 210.449219 312.441406 210.546875 C 310.578125 210.765625 308.734375 211.089844 306.871094 211.308594 C 305.027344 211.523438 303.175781 211.664062 301.320312 211.835938 C 300.53125 211.914062 299.726562 211.980469 298.9375 212.109375 C 297.429688 212.347656 295.925781 212.640625 294.417969 212.878906 C 293.140625 213.085938 291.847656 213.183594 290.582031 213.421875 C 288.964844 213.722656 287.371094 214.101562 285.769531 214.460938 C 284.328125 214.773438 282.875 215.058594 281.445312 215.414062 C 279.667969 215.847656 277.898438 216.335938 276.132812 216.824219 C 273.433594 217.570312 270.714844 218.265625 268.046875 219.121094 C 262 221.050781 255.984375 223.035156 250.089844 225.417969 C 247.128906 226.621094 244.171875 227.8125 241.296875 229.167969 C 237.925781 230.761719 234.6875 232.605469 231.402344 234.382812 C 230.144531 235.066406 228.921875 235.8125 227.738281 236.613281 C 225.90625 237.851562 224.128906 239.152344 222.210938 240.550781 M 48.828125 224.691406 C 50.066406 224.777344 51.289062 224.867188 52.523438 224.953125 C 53.847656 225.050781 55.160156 225.007812 56.480469 225.148438 C 58.628906 225.375 60.785156 225.496094 62.941406 225.699219 C 64.535156 225.851562 66.117188 226.015625 67.699219 226.242188 C 69.453125 226.492188 71.222656 226.609375 72.988281 226.785156 C 73.824219 226.871094 74.667969 226.925781 75.503906 227.054688 C 77.097656 227.292969 78.6875 227.609375 80.292969 227.824219 C 81.34375 227.964844 82.4375 227.890625 83.445312 228.140625 C 84.214844 228.324219 84.984375 228.191406 85.703125 228.386719 C 87.445312 228.863281 89.265625 228.757812 91.023438 229.125 C 92.054688 229.34375 93.136719 229.308594 94.1875 229.417969 C 94.890625 229.492188 95.597656 229.582031 96.300781 229.699219 C 97.730469 229.9375 99.152344 230.21875 100.570312 230.457031 C 101.765625 230.652344 102.96875 230.785156 104.148438 231 C 105.761719 231.304688 107.355469 231.683594 108.960938 232.03125 C 110.042969 232.269531 111.117188 232.519531 112.203125 232.746094 C 113.925781 233.125 115.648438 233.503906 117.371094 233.851562 C 118.824219 234.144531 120.308594 234.339844 121.738281 234.707031 C 124.9375 235.519531 128.113281 236.398438 131.289062 237.277344 C 134.269531 238.097656 137.238281 238.921875 140.195312 239.800781 C 142.214844 240.398438 144.21875 241.070312 146.210938 241.730469 C 149.050781 242.671875 151.902344 243.59375 154.710938 244.625 C 157.136719 245.511719 159.480469 246.640625 161.917969 247.464844 C 165.253906 248.601562 168.398438 250.171875 171.617188 251.582031 C 173.621094 252.460938 175.519531 253.542969 177.480469 254.519531 C 177.839844 254.691406 178.261719 254.746094 178.664062 254.824219 C 178.738281 254.835938 178.847656 254.726562 178.945312 254.683594 C 178.867188 254.648438 178.792969 254.617188 178.726562 254.574219 C 177.871094 254.117188 177.015625 253.652344 176.148438 253.199219 C 173.570312 251.832031 171 250.457031 168.398438 249.132812 C 166.742188 248.289062 165.09375 247.421875 163.359375 246.738281 C 160.390625 245.566406 157.539062 244.136719 154.589844 242.902344 C 152.507812 242.035156 150.472656 241.027344 148.378906 240.167969 C 145.84375 239.128906 143.265625 238.1875 140.71875 237.15625 C 139.179688 236.539062 137.683594 235.835938 136.144531 235.226562 C 132.882812 233.9375 129.609375 232.667969 126.3125 231.421875 C 123.515625 230.371094 120.710938 229.34375 117.878906 228.367188 C 112.796875 226.609375 107.703125 224.875 102.597656 223.1875 C 100.019531 222.328125 97.417969 221.550781 94.816406 220.769531 C 92.679688 220.128906 90.523438 219.542969 88.367188 218.925781 C 86.222656 218.320312 84.074219 217.667969 81.917969 217.105469 C 79.707031 216.53125 77.453125 216.109375 75.253906 215.46875 C 71.753906 214.460938 68.242188 213.539062 64.664062 212.890625 C 62.246094 212.445312 59.851562 211.871094 57.445312 211.328125 C 55.257812 210.828125 53.078125 210.265625 50.886719 209.777344 C 50.53125 209.703125 49.933594 209.769531 49.761719 210.007812 C 48.308594 211.882812 46.964844 213.820312 45.535156 215.707031 C 44.070312 217.648438 42.542969 219.542969 41.046875 221.453125 C 40.527344 222.113281 39.972656 222.742188 39.519531 223.445312 C 39.238281 223.878906 38.359375 224.246094 38.78125 224.757812 C 39.042969 225.082031 39.929688 224.964844 40.527344 224.941406 C 43.214844 224.875 45.890625 224.777344 48.828125 224.691406 M 79.492188 270.820312 C 79.632812 270.734375 79.761719 270.582031 79.902344 270.570312 C 82.015625 270.386719 84.117188 270.191406 86.234375 270.050781 C 87.554688 269.964844 88.867188 270.074219 90.1875 269.8125 C 91.433594 269.574219 92.726562 269.78125 94.015625 269.5625 C 95.476562 269.324219 96.996094 269.507812 98.492188 269.28125 C 99.964844 269.054688 101.460938 269.292969 102.96875 269.03125 C 104.558594 268.761719 106.207031 269.023438 107.832031 268.761719 C 109.425781 268.5 111.074219 268.6875 112.699219 268.523438 C 115.183594 268.273438 117.6875 268.328125 120.1875 268.253906 C 125.425781 268.089844 130.671875 268.207031 135.914062 268.199219 C 136.273438 268.199219 136.632812 268.101562 137 268.058594 C 136.609375 267.925781 136.230469 267.796875 135.839844 267.6875 C 135.675781 267.644531 135.492188 267.6875 135.320312 267.675781 C 134.257812 267.613281 133.207031 267.578125 132.144531 267.484375 C 129.953125 267.277344 127.742188 267.15625 125.554688 266.90625 C 124.417969 266.777344 123.265625 266.820312 122.117188 266.691406 C 120.125 266.464844 118.085938 266.441406 116.070312 266.429688 C 111.433594 266.398438 106.804688 266.226562 102.152344 266.59375 C 97.753906 266.941406 93.320312 266.464844 88.898438 266.863281 C 85.332031 267.191406 81.734375 266.84375 78.136719 267.101562 C 74.375 267.363281 70.582031 267.191406 66.820312 267.675781 C 65.261719 267.882812 63.667969 267.871094 62.085938 267.960938 C 61.996094 267.960938 61.910156 267.949219 61.824219 267.960938 C 60.589844 268.132812 59.351562 268.339844 58.105469 268.46875 C 56.96875 268.597656 55.820312 268.640625 54.683594 268.738281 C 53.890625 268.804688 53.089844 268.878906 52.296875 269 C 50.746094 269.238281 49.199219 269.519531 47.648438 269.78125 C 46.457031 269.976562 45.261719 270.117188 44.070312 270.332031 C 42.855469 270.550781 41.664062 270.84375 40.449219 271.089844 C 39.238281 271.339844 38.011719 271.515625 36.820312 271.816406 C 34.867188 272.316406 33.742188 271.492188 33.730469 269.476562 C 33.730469 268.78125 33.742188 268.078125 33.71875 267.386719 C 33.710938 267.222656 33.570312 267.058594 33.480469 266.90625 C 33.375 267.050781 33.253906 267.191406 33.167969 267.351562 C 32.820312 267.992188 32.496094 268.640625 32.160156 269.292969 C 30.976562 271.558594 29.808594 273.824219 28.617188 276.078125 C 28.355469 276.574219 28.472656 276.910156 29.027344 276.859375 C 30.273438 276.726562 31.5 276.511719 32.746094 276.347656 C 34.285156 276.152344 35.832031 276.042969 37.371094 275.804688 C 39.378906 275.503906 41.363281 275.070312 43.367188 274.789062 C 45.035156 274.550781 46.714844 274.429688 48.382812 274.246094 C 49.175781 274.160156 50 274.167969 50.757812 273.964844 C 51.984375 273.617188 53.242188 273.671875 54.488281 273.488281 C 55.65625 273.304688 56.859375 273.335938 58.042969 273.195312 C 59.90625 272.964844 61.75 272.652344 63.613281 272.425781 C 64.835938 272.285156 66.074219 272.242188 67.296875 272.152344 C 67.429688 272.144531 67.570312 272.175781 67.675781 272.132812 C 68.707031 271.730469 69.8125 271.808594 70.875 271.644531 C 72 271.480469 73.171875 271.546875 74.300781 271.339844 C 75.957031 271.027344 77.582031 270.800781 79.492188 270.820312 M 45.6875 230.980469 C 47.300781 230.652344 48.960938 230.828125 50.585938 230.492188 C 51.820312 230.230469 53.109375 230.492188 54.410156 230.242188 C 55.949219 229.949219 57.554688 229.992188 59.136719 229.9375 C 63.15625 229.785156 67.179688 230.144531 71.210938 229.710938 C 73.324219 229.484375 75.480469 229.644531 77.625 229.679688 C 78.863281 229.699219 80.085938 229.851562 81.3125 229.917969 C 81.441406 229.925781 81.570312 229.820312 81.703125 229.765625 C 81.582031 229.730469 81.472656 229.6875 81.34375 229.667969 C 80.152344 229.492188 78.960938 229.222656 77.769531 229.167969 C 76.207031 229.09375 74.679688 228.886719 73.140625 228.636719 C 71.167969 228.324219 69.171875 228.085938 67.179688 227.847656 C 65.464844 227.640625 63.753906 227.414062 62.03125 227.335938 C 60.035156 227.25 58.074219 227.023438 56.089844 226.816406 C 54.300781 226.621094 52.503906 226.566406 50.703125 226.546875 C 47.550781 226.511719 44.40625 226.566406 41.253906 226.730469 C 39.726562 226.816406 38.554688 226.988281 37.753906 228.421875 C 36.90625 229.917969 35.921875 231.324219 35 232.777344 C 34.957031 232.855469 34.945312 232.960938 34.921875 233.046875 C 35.011719 233.058594 35.117188 233.101562 35.171875 233.070312 C 36.363281 232.34375 37.773438 232.375 39.074219 232.074219 C 41.144531 231.5625 43.289062 231.324219 45.6875 230.980469 M 315.910156 226.785156 C 318.71875 226.871094 321.511719 226.957031 324.320312 227.042969 C 324.449219 227.042969 324.589844 227.011719 324.710938 227.042969 C 326.183594 227.476562 327.714844 227.347656 329.207031 227.554688 C 330.390625 227.707031 331.582031 227.695312 332.765625 227.847656 C 334.453125 228.0625 336.125 228.441406 337.816406 228.59375 C 339.148438 228.714844 340.480469 228.8125 341.792969 229.136719 C 341.933594 229.167969 342.097656 229.058594 342.257812 229.015625 C 342.195312 228.863281 342.160156 228.691406 342.0625 228.574219 C 341.835938 228.3125 341.53125 228.105469 341.335938 227.824219 C 340.578125 226.75 339.863281 225.644531 339.09375 224.5625 C 338.964844 224.378906 338.691406 224.203125 338.476562 224.183594 C 337.382812 224.0625 336.277344 223.910156 335.179688 223.921875 C 331.074219 223.964844 326.953125 223.71875 322.847656 224.160156 C 321.578125 224.300781 320.277344 224.226562 319.03125 224.476562 C 318.273438 224.628906 317.523438 224.605469 316.777344 224.703125 C 315.261719 224.917969 313.765625 225.234375 312.257812 225.472656 C 310.890625 225.679688 309.515625 225.796875 308.148438 226.015625 C 306.644531 226.242188 305.136719 226.546875 303.628906 226.785156 C 302.925781 226.902344 302.1875 226.859375 301.515625 227.066406 C 299.382812 227.726562 297.136719 227.804688 294.980469 228.355469 C 293.984375 228.605469 292.964844 228.765625 291.96875 228.996094 C 291.773438 229.039062 291.609375 229.167969 291.425781 229.265625 C 291.609375 229.320312 291.804688 229.417969 291.980469 229.40625 C 292.597656 229.34375 293.234375 229.308594 293.832031 229.136719 C 295.273438 228.722656 296.738281 228.476562 298.222656 228.355469 C 299.054688 228.289062 299.890625 228.191406 300.726562 228.074219 C 301.710938 227.933594 302.675781 227.714844 303.664062 227.585938 C 304.628906 227.457031 305.601562 227.46875 306.566406 227.304688 C 308.28125 227.011719 309.992188 226.816406 311.726562 226.796875 C 313.039062 226.773438 314.339844 226.785156 315.910156 226.785156 M 325.351562 266.886719 C 324.472656 266.800781 323.59375 266.703125 322.707031 266.625 C 321.480469 266.527344 320.203125 266.617188 319.019531 266.324219 C 317.265625 265.878906 315.476562 266.074219 313.722656 265.910156 C 310.113281 265.574219 306.460938 265.660156 302.828125 265.574219 C 302.65625 265.574219 302.417969 265.652344 302.320312 265.5625 C 301.648438 265.03125 300.886719 265.445312 300.183594 265.324219 C 300.0625 265.304688 299.921875 265.457031 299.792969 265.519531 C 299.933594 265.628906 300.0625 265.8125 300.207031 265.824219 C 301.398438 265.878906 302.589844 265.988281 303.769531 266.039062 C 306.503906 266.171875 309.222656 266.300781 311.941406 266.582031 C 313.613281 266.757812 315.292969 266.863281 316.960938 267.125 C 318.621094 267.386719 320.3125 267.492188 321.980469 267.667969 C 322.726562 267.742188 323.484375 267.808594 324.234375 267.9375 C 325.609375 268.175781 326.976562 268.5 328.363281 268.707031 C 329.988281 268.933594 331.648438 268.96875 333.25 269.292969 C 334.011719 269.445312 334.78125 269.367188 335.507812 269.53125 C 337.390625 269.941406 339.308594 270.074219 341.21875 270.289062 C 341.519531 270.320312 341.835938 270.246094 342.128906 270.3125 C 343.699219 270.648438 345.28125 270.84375 346.898438 270.820312 C 347.527344 270.808594 347.058594 270.570312 346.972656 270.410156 C 346.59375 269.695312 346.191406 268.988281 345.855469 268.253906 C 345.066406 266.527344 343.875 264.988281 343.515625 263.058594 C 343.492188 262.929688 343.277344 262.832031 343.15625 262.714844 C 343.113281 262.832031 343.050781 262.941406 343.050781 263.058594 C 343.039062 263.363281 343.027344 263.679688 343.050781 263.980469 C 343.125 264.988281 343.246094 266.007812 343.300781 267.015625 C 343.332031 267.546875 342.703125 268.445312 342.257812 268.457031 C 340.957031 268.480469 339.539062 268.738281 338.390625 268.304688 C 336.644531 267.644531 334.867188 267.753906 333.109375 267.460938 C 331.605469 267.210938 330.042969 267.535156 328.503906 267.179688 C 327.574219 266.960938 326.585938 266.972656 325.351562 266.886719 M 229.160156 267.9375 C 229.472656 267.851562 229.777344 267.722656 230.101562 267.6875 C 231.152344 267.578125 232.203125 267.484375 233.265625 267.429688 C 234.503906 267.363281 235.714844 267.386719 236.960938 267.210938 C 238.449219 267.003906 239.976562 267.179688 241.472656 266.929688 C 242.273438 266.800781 243.128906 266.984375 243.953125 266.886719 C 244.667969 266.800781 245.40625 266.746094 246.121094 266.691406 C 248.875 266.496094 251.628906 266.464844 254.378906 266.386719 C 255.03125 266.367188 255.691406 266.386719 256.34375 266.378906 C 256.417969 266.378906 256.535156 266.214844 256.535156 266.128906 C 256.535156 266.039062 256.429688 265.890625 256.34375 265.878906 C 256.082031 265.847656 255.820312 265.855469 255.5625 265.867188 C 253.285156 265.953125 251.007812 266.03125 248.734375 266.136719 C 247.0625 266.214844 245.40625 266.050781 243.726562 266.34375 C 242.273438 266.605469 240.746094 266.34375 239.261719 266.636719 C 238.273438 266.832031 237.234375 266.789062 236.226562 266.855469 C 233.808594 267.015625 231.390625 267.15625 228.984375 267.4375 C 227.1875 267.644531 225.375 267.785156 223.578125 267.980469 C 223.457031 267.992188 223.359375 268.15625 223.253906 268.253906 C 223.371094 268.339844 223.511719 268.5 223.609375 268.480469 C 225.355469 268.101562 227.121094 267.925781 229.160156 267.9375 Z M 229.160156 267.9375 " fill-opacity="1" fill-rule="nonzero"/></g><path fill="#ffa43a" d="M 205.695312 258.757812 C 208.578125 257.792969 211.320312 256.828125 214.070312 255.875 C 216.523438 255.027344 218.960938 254.140625 221.429688 253.402344 C 223.890625 252.667969 226.382812 252.070312 228.867188 251.417969 C 231.46875 250.738281 234.070312 250.042969 236.679688 249.402344 C 238.394531 248.980469 240.128906 248.679688 241.851562 248.265625 C 244.441406 247.648438 247.054688 247.171875 249.621094 246.464844 C 251.488281 245.957031 253.4375 245.761719 255.335938 245.382812 C 257.296875 244.980469 259.246094 244.484375 261.21875 244.09375 C 262.800781 243.777344 264.40625 243.574219 266 243.292969 C 267.820312 242.964844 269.640625 242.566406 271.460938 242.261719 C 272.785156 242.035156 274.117188 241.9375 275.4375 241.71875 C 276.828125 241.492188 278.191406 241.175781 279.570312 240.949219 C 280.402344 240.808594 281.25 240.808594 282.082031 240.667969 C 283.761719 240.375 285.476562 240.363281 287.144531 239.921875 C 287.945312 239.703125 288.804688 239.898438 289.660156 239.683594 C 290.710938 239.410156 291.847656 239.476562 292.945312 239.367188 C 293.519531 239.3125 294.09375 239.203125 294.667969 239.105469 C 295.199219 239.019531 295.792969 239.355469 296.269531 238.859375 C 296.3125 238.816406 296.445312 238.859375 296.53125 238.847656 C 297.898438 238.761719 299.285156 238.804688 300.605469 238.542969 C 301.886719 238.304688 303.21875 238.554688 304.464844 238.054688 C 304.539062 238.023438 304.636719 238.054688 304.726562 238.054688 C 306.351562 237.96875 307.976562 237.894531 309.589844 237.785156 C 310.339844 237.730469 311.085938 237.613281 311.847656 237.535156 C 312.550781 237.460938 313.296875 237.71875 313.96875 237.277344 C 314.035156 237.230469 314.144531 237.277344 314.230469 237.265625 C 315.898438 237.179688 317.570312 237.136719 319.226562 236.992188 C 320.34375 236.894531 321.4375 236.65625 322.554688 236.484375 C 322.769531 236.453125 323.019531 236.410156 323.203125 236.496094 C 323.476562 236.625 323.679688 236.851562 323.917969 237.046875 C 323.703125 237.210938 323.484375 237.480469 323.246094 237.515625 C 322.195312 237.644531 321.132812 237.664062 320.082031 237.808594 C 317.9375 238.089844 315.78125 238.207031 313.625 238.359375 C 311.597656 238.5 309.582031 238.738281 307.554688 238.878906 C 305.527344 239.019531 303.511719 239.257812 301.484375 239.410156 C 299.859375 239.53125 298.210938 239.726562 296.597656 239.941406 C 294.699219 240.191406 292.769531 240.222656 290.882812 240.65625 C 289.910156 240.886719 288.855469 240.820312 287.847656 240.949219 C 286.777344 241.089844 285.726562 241.308594 284.652344 241.460938 C 283.859375 241.578125 283.058594 241.609375 282.265625 241.730469 C 280.632812 241.980469 278.972656 242.109375 277.347656 242.488281 C 276.003906 242.792969 274.605469 242.824219 273.25 243.050781 C 271.503906 243.34375 269.769531 243.714844 268.027344 244.027344 C 267.332031 244.15625 266.628906 244.222656 265.933594 244.351562 C 264.277344 244.667969 262.617188 245.003906 260.960938 245.328125 C 259.90625 245.535156 258.84375 245.707031 257.804688 245.925781 C 255.875 246.324219 253.957031 246.769531 252.027344 247.171875 C 250.574219 247.476562 249.113281 247.722656 247.660156 248.015625 C 246.414062 248.265625 245.167969 248.527344 243.921875 248.808594 C 242.445312 249.144531 240.972656 249.492188 239.511719 249.859375 C 236.421875 250.628906 233.355469 251.484375 230.242188 252.167969 C 227.488281 252.765625 224.78125 253.511719 222.09375 254.335938 C 218.070312 255.570312 214.050781 256.839844 210.09375 258.28125 C 207.4375 259.246094 204.773438 260.210938 202.105469 261.140625 C 200.589844 261.671875 199.105469 262.324219 197.628906 262.972656 C 197 263.253906 196.449219 263.699219 195.839844 264.035156 C 195.667969 264.132812 195.398438 264.175781 195.222656 264.113281 C 194.726562 263.90625 195.203125 263.492188 195.257812 263.449219 C 195.679688 263.070312 196.125 262.679688 196.632812 262.453125 C 198.703125 261.542969 200.792969 260.6875 202.875 259.820312 C 203.753906 259.441406 204.664062 259.113281 205.695312 258.757812 Z M 205.695312 258.757812 " fill-opacity="1" fill-rule="nonzero"/><path fill="#ffa43a" d="M 101.644531 254.835938 C 106.316406 254.835938 110.859375 254.800781 115.398438 254.84375 C 117.632812 254.867188 119.886719 254.867188 122.097656 255.148438 C 123.429688 255.320312 124.742188 255.265625 126.054688 255.355469 C 128.425781 255.515625 130.800781 255.679688 133.175781 255.886719 C 134.941406 256.035156 136.707031 256.1875 138.464844 256.417969 C 140.21875 256.644531 141.976562 256.882812 143.753906 256.949219 C 145.171875 257.011719 146.582031 257.25 147.988281 257.457031 C 149.671875 257.695312 151.351562 258 153.039062 258.226562 C 154.046875 258.367188 155.066406 258.378906 156.074219 258.507812 C 157.019531 258.628906 157.949219 258.8125 158.882812 258.996094 C 159.53125 259.125 160.195312 259.070312 160.867188 259.234375 C 162.320312 259.582031 163.867188 259.558594 165.351562 259.832031 C 167.792969 260.273438 170.285156 260.394531 172.679688 261.121094 C 172.832031 261.164062 173.070312 261.121094 173.15625 261.21875 C 173.296875 261.378906 173.449219 261.683594 173.382812 261.824219 C 173.308594 261.988281 172.972656 262.140625 172.789062 262.117188 C 171.3125 261.902344 169.851562 261.640625 168.378906 261.390625 C 166.382812 261.042969 164.386719 260.652344 162.394531 260.351562 C 160.8125 260.113281 159.21875 260.027344 157.636719 259.808594 C 156.03125 259.59375 154.449219 259.277344 152.84375 259.039062 C 152.054688 258.921875 151.261719 258.855469 150.460938 258.769531 C 148.609375 258.585938 146.753906 258.476562 144.910156 258.226562 C 143.199219 258 141.476562 257.835938 139.761719 257.683594 C 138.136719 257.53125 136.511719 257.304688 134.875 257.164062 C 132.589844 256.96875 130.300781 256.816406 128.027344 256.601562 C 126.875 256.492188 125.71875 256.566406 124.589844 256.382812 C 122.703125 256.082031 120.796875 256.351562 118.941406 256.082031 C 117.261719 255.84375 115.605469 255.917969 113.9375 255.886719 C 108.601562 255.765625 103.25 255.441406 97.9375 255.679688 C 92.378906 255.941406 86.816406 255.570312 81.28125 255.929688 C 78.34375 256.113281 75.394531 255.863281 72.480469 256.1875 C 70.363281 256.425781 68.242188 256.15625 66.171875 256.4375 C 64.578125 256.65625 62.984375 256.460938 61.433594 256.699219 C 60.070312 256.902344 58.679688 256.742188 57.347656 256.96875 C 56.285156 257.152344 55.214844 257.023438 54.183594 257.207031 C 52.199219 257.554688 50.183594 257.480469 48.210938 257.933594 C 47.105469 258.183594 45.933594 258.128906 44.785156 258.226562 C 44.375 258.257812 44.039062 258.074219 44.050781 257.71875 C 44.058594 257.523438 44.484375 257.21875 44.742188 257.195312 C 46.011719 257.054688 47.289062 257.046875 48.558594 256.902344 C 50.464844 256.6875 52.363281 256.394531 54.257812 256.132812 C 54.300781 256.125 54.347656 256.132812 54.390625 256.132812 C 55.972656 256.046875 57.542969 255.941406 59.125 255.875 C 61.488281 255.777344 63.882812 255.875 66.214844 255.558594 C 68.328125 255.265625 70.453125 255.605469 72.53125 255.320312 C 75.859375 254.878906 79.199219 255.332031 82.515625 255.0625 C 88.832031 254.550781 95.175781 254.996094 101.644531 254.835938 Z M 101.644531 254.835938 " fill-opacity="1" fill-rule="nonzero"/><path fill="#ffa43a" d="M 117.101562 248.535156 C 115.03125 248.363281 113.089844 248.253906 111.160156 247.996094 C 109.40625 247.757812 107.617188 247.703125 105.882812 247.421875 C 104.375 247.171875 102.828125 247.570312 101.375 246.976562 C 101.296875 246.945312 101.199219 246.976562 101.113281 246.976562 C 99.140625 246.890625 97.15625 246.910156 95.195312 246.683594 C 93.570312 246.488281 91.910156 246.660156 90.328125 246.402344 C 88.824219 246.152344 87.316406 246.402344 85.84375 246.175781 C 83.695312 245.839844 81.519531 246.175781 79.40625 245.882812 C 77.117188 245.566406 74.839844 245.761719 72.566406 245.675781 C 69.324219 245.554688 66.082031 245.316406 62.855469 245.457031 C 59.398438 245.601562 55.9375 245.601562 52.480469 245.695312 C 50.410156 245.75 48.339844 246.011719 46.28125 246.207031 C 45.835938 246.25 45.394531 246.402344 44.949219 246.445312 C 44.808594 246.457031 44.558594 246.292969 44.535156 246.175781 C 44.503906 246.03125 44.632812 245.804688 44.753906 245.6875 C 44.894531 245.554688 45.101562 245.449219 45.296875 245.425781 C 46.21875 245.316406 47.136719 245.21875 48.070312 245.15625 C 49.695312 245.046875 51.34375 245.132812 52.9375 244.839844 C 54.53125 244.546875 56.101562 244.644531 57.683594 244.636719 C 63.582031 244.601562 69.476562 244.515625 75.371094 244.667969 C 77.996094 244.734375 80.640625 244.6875 83.253906 244.9375 C 84.976562 245.113281 86.699219 244.90625 88.390625 245.175781 C 89.9375 245.425781 91.488281 245.199219 92.996094 245.449219 C 94.285156 245.652344 95.554688 245.546875 96.820312 245.675781 C 99.238281 245.9375 101.65625 246.078125 104.074219 246.226562 C 105.96875 246.347656 107.84375 246.652344 109.753906 246.738281 C 111.648438 246.8125 113.546875 246.996094 115.429688 247.257812 C 117.015625 247.476562 118.617188 247.59375 120.1875 247.8125 C 122.042969 248.070312 123.941406 248.058594 125.769531 248.527344 C 126.660156 248.753906 127.613281 248.722656 128.535156 248.808594 C 129.695312 248.917969 130.84375 249.035156 131.992188 249.304688 C 132.71875 249.480469 133.476562 249.394531 134.246094 249.554688 C 135.765625 249.878906 137.335938 249.902344 138.863281 250.140625 C 140.78125 250.433594 142.679688 250.855469 144.585938 251.171875 C 145.953125 251.398438 147.328125 251.484375 148.695312 251.710938 C 150.441406 252.003906 152.171875 252.382812 153.90625 252.710938 C 154.558594 252.828125 155.21875 252.894531 155.878906 253.011719 C 157.257812 253.261719 158.632812 253.554688 160.011719 253.792969 C 161.246094 254 162.492188 254.128906 163.714844 254.335938 C 164.769531 254.507812 165.820312 254.726562 166.871094 254.941406 C 167.554688 255.082031 168.234375 255.234375 168.917969 255.375 C 169.050781 255.398438 169.222656 255.320312 169.308594 255.386719 C 169.570312 255.582031 170.023438 255.851562 170.003906 256.046875 C 169.960938 256.382812 169.546875 256.492188 169.15625 256.425781 C 168.007812 256.230469 166.859375 256.082031 165.722656 255.863281 C 164.507812 255.636719 163.316406 255.355469 162.101562 255.117188 C 160.324219 254.757812 158.558594 254.390625 156.769531 254.074219 C 155.542969 253.859375 154.289062 253.75 153.0625 253.535156 C 151.242188 253.21875 149.421875 252.816406 147.601562 252.503906 C 146.289062 252.277344 144.945312 252.179688 143.621094 251.960938 C 141.628906 251.636719 139.632812 251.257812 137.640625 250.921875 C 136.890625 250.800781 136.144531 250.738281 135.386719 250.648438 C 133.714844 250.476562 132.023438 250.367188 130.367188 250.109375 C 128.210938 249.773438 126.054688 249.46875 123.875 249.328125 C 122.28125 249.21875 120.699219 249.003906 119.117188 248.820312 C 118.476562 248.730469 117.859375 248.625 117.101562 248.535156 Z M 117.101562 248.535156 " fill-opacity="1" fill-rule="nonzero"/><path fill="#ffa43a" d="M 50.011719 240.9375 C 47.648438 241.027344 45.394531 240.992188 43.183594 241.253906 C 42.035156 241.394531 40.894531 241.414062 39.746094 241.460938 C 39.484375 241.46875 39.246094 241.503906 39.246094 241.078125 C 39.246094 240.699219 39.421875 240.679688 39.714844 240.667969 C 41.035156 240.59375 42.378906 240.644531 43.660156 240.375 C 45.339844 240.027344 47.007812 240.332031 48.667969 240.125 C 52.949219 239.605469 57.238281 239.964844 61.53125 239.898438 C 65.855469 239.824219 70.179688 239.734375 74.496094 239.941406 C 77 240.0625 79.5 239.964844 81.984375 240.214844 C 83.394531 240.355469 84.800781 240.320312 86.199219 240.417969 C 88.574219 240.582031 90.949219 240.742188 93.320312 240.949219 C 95.042969 241.089844 96.757812 241.265625 98.46875 241.480469 C 100.246094 241.707031 102.003906 242.011719 103.78125 242.25 C 104.789062 242.378906 105.808594 242.402344 106.816406 242.53125 C 107.757812 242.652344 108.679688 242.867188 109.621094 243.03125 C 110.328125 243.148438 111.03125 243.226562 111.734375 243.3125 C 113.273438 243.496094 114.824219 243.617188 116.363281 243.855469 C 118.367188 244.15625 120.351562 244.570312 122.347656 244.882812 C 123.796875 245.113281 125.261719 245.210938 126.714844 245.425781 C 128.015625 245.632812 129.292969 245.945312 130.59375 246.175781 C 131.332031 246.304688 132.089844 246.335938 132.835938 246.464844 C 134.183594 246.695312 135.515625 246.964844 136.859375 247.191406 C 137.597656 247.324219 138.34375 247.378906 139.089844 247.519531 C 140.792969 247.832031 142.484375 248.179688 144.1875 248.492188 C 145.324219 248.710938 146.472656 248.871094 147.609375 249.089844 C 149.183594 249.394531 150.742188 249.761719 152.316406 250.066406 C 153.496094 250.292969 154.6875 250.464844 155.871094 250.660156 C 156 250.683594 156.164062 250.617188 156.257812 250.671875 C 156.585938 250.855469 156.878906 251.074219 157.191406 251.277344 C 156.886719 251.417969 156.574219 251.703125 156.269531 251.691406 C 155.480469 251.660156 154.6875 251.539062 153.90625 251.398438 C 152.695312 251.179688 151.492188 250.910156 150.289062 250.660156 C 148.195312 250.226562 146.105469 249.785156 144.011719 249.371094 C 142.875 249.15625 141.714844 249.023438 140.566406 248.820312 C 138.832031 248.492188 137.097656 248.113281 135.351562 247.800781 C 134.171875 247.582031 132.96875 247.441406 131.777344 247.246094 C 130.226562 246.996094 128.675781 246.707031 127.125 246.464844 C 125.761719 246.261719 124.382812 246.140625 123.019531 245.925781 C 121.585938 245.695312 120.179688 245.394531 118.757812 245.15625 C 118.054688 245.035156 117.351562 244.972656 116.644531 244.882812 C 114.488281 244.625 112.320312 244.363281 110.164062 244.09375 C 108.179688 243.84375 106.1875 243.617188 104.203125 243.292969 C 102.707031 243.042969 101.210938 242.910156 99.703125 242.75 C 98.035156 242.566406 96.355469 242.378906 94.6875 242.230469 C 92.53125 242.023438 90.371094 241.882812 88.226562 241.675781 C 86.992188 241.558594 85.746094 241.664062 84.53125 241.460938 C 82.386719 241.101562 80.207031 241.460938 78.09375 241.167969 C 75.847656 240.863281 73.617188 240.984375 71.382812 240.972656 C 64.285156 240.90625 57.207031 240.9375 50.011719 240.9375 Z M 50.011719 240.9375 " fill-opacity="1" fill-rule="nonzero"/><path fill="#ffa43a" d="M 273.324219 251.417969 C 276.132812 251.128906 278.808594 251.039062 281.488281 250.835938 C 282.894531 250.726562 284.316406 250.835938 285.703125 250.617188 C 287.847656 250.28125 290.027344 250.617188 292.140625 250.324219 C 294.429688 250.011719 296.703125 250.140625 298.980469 250.128906 C 307.371094 250.085938 315.746094 250.121094 324.136719 250.109375 C 325.511719 250.109375 326.867188 249.914062 328.167969 249.414062 C 328.375 249.339844 328.632812 249.425781 328.871094 249.449219 C 328.820312 249.6875 328.828125 249.957031 328.710938 250.152344 C 328.265625 250.84375 327.453125 250.8125 326.804688 250.878906 C 322.304688 251.355469 317.785156 251.367188 313.296875 251.09375 C 309.699219 250.878906 306.101562 250.824219 302.535156 250.976562 C 299.035156 251.128906 295.523438 250.953125 292.03125 251.234375 C 290.136719 251.386719 288.238281 251.214844 286.375 251.472656 C 284.824219 251.691406 283.277344 251.496094 281.769531 251.746094 C 280.4375 251.960938 279.113281 251.820312 277.8125 251.984375 C 275.710938 252.234375 273.597656 252.417969 271.484375 252.503906 C 269.714844 252.578125 267.960938 252.828125 266.195312 253.011719 C 264.601562 253.175781 263.019531 253.359375 261.4375 253.535156 C 259.984375 253.695312 258.519531 253.847656 257.066406 254.066406 C 255.59375 254.28125 254.140625 254.59375 252.679688 254.835938 C 251.929688 254.953125 251.183594 254.996094 250.433594 255.105469 C 248.832031 255.332031 247.214844 255.410156 245.644531 255.863281 C 244.886719 256.082031 244.0625 256.027344 243.269531 256.15625 C 241.882812 256.375 240.496094 256.566406 239.128906 256.902344 C 237.972656 257.195312 236.746094 257.238281 235.554688 257.46875 C 233.863281 257.78125 232.183594 258.269531 230.480469 258.464844 C 229.355469 258.59375 228.257812 258.8125 227.164062 259.039062 C 224.757812 259.546875 222.363281 260.078125 219.96875 260.644531 C 219.1875 260.828125 218.441406 261.164062 217.660156 261.371094 C 217.464844 261.421875 217.214844 261.261719 216.988281 261.207031 C 217.128906 261 217.214844 260.730469 217.398438 260.601562 C 217.734375 260.382812 218.105469 260.175781 218.496094 260.089844 C 220.671875 259.546875 222.863281 259.039062 225.039062 258.507812 C 226.429688 258.171875 227.792969 257.75 229.191406 257.480469 C 230.902344 257.152344 232.648438 256.96875 234.363281 256.664062 C 235.53125 256.460938 236.671875 256.101562 237.839844 255.90625 C 239.195312 255.679688 240.570312 255.550781 241.949219 255.363281 C 243.183594 255.203125 244.429688 255.039062 245.65625 254.835938 C 246.46875 254.703125 247.25 254.433594 248.0625 254.324219 C 250.21875 254.03125 252.386719 253.835938 254.542969 253.511719 C 256.65625 253.199219 258.757812 252.839844 260.894531 252.699219 C 262.390625 252.589844 263.886719 252.332031 265.390625 252.1875 C 267.289062 252.003906 269.164062 251.710938 271.070312 251.691406 C 271.777344 251.660156 272.480469 251.507812 273.324219 251.417969 Z M 273.324219 251.417969 " fill-opacity="1" fill-rule="nonzero"/><path fill="#ffa43a" d="M 252.160156 259.875 C 251.941406 259.980469 251.777344 260.058594 251.628906 260.070312 C 249.785156 260.167969 247.941406 260.210938 246.101562 260.351562 C 244.289062 260.480469 242.480469 260.644531 240.679688 260.882812 C 239.335938 261.066406 238.015625 261.402344 236.679688 261.640625 C 236.476562 261.671875 236.191406 261.542969 236.007812 261.402344 C 235.78125 261.230469 235.683594 260.980469 236.105469 260.871094 C 236.734375 260.699219 237.351562 260.46875 237.992188 260.363281 C 238.773438 260.21875 239.597656 260.242188 240.367188 260.070312 C 242.339844 259.644531 244.375 259.808594 246.339844 259.300781 C 246.425781 259.277344 246.511719 259.300781 246.597656 259.300781 C 248.3125 259.210938 250.023438 259.191406 251.726562 259.027344 C 254.75 258.734375 257.785156 258.636719 260.808594 258.441406 C 262.214844 258.355469 263.636719 258.410156 265.023438 258.238281 C 267.34375 257.945312 269.695312 258.203125 271.980469 257.933594 C 274.148438 257.671875 276.296875 257.910156 278.429688 257.71875 C 283.15625 257.304688 287.894531 257.71875 292.609375 257.402344 C 295.773438 257.1875 298.925781 257.121094 302.070312 257.261719 C 307.28125 257.488281 312.484375 257.285156 317.6875 257.542969 C 320.0625 257.664062 322.445312 257.480469 324.785156 257.78125 C 326.898438 258.054688 329.003906 257.890625 331.105469 258.007812 C 331.410156 258.03125 331.710938 258.226562 332.003906 258.34375 C 331.691406 258.574219 331.367188 259.019531 331.0625 259.007812 C 329.480469 258.941406 327.875 259.320312 326.316406 258.789062 C 326 258.679688 325.621094 258.777344 325.273438 258.777344 C 320.246094 258.691406 315.207031 258.789062 310.1875 258.476562 C 303.488281 258.0625 296.800781 258.203125 290.113281 258.34375 C 286.441406 258.421875 282.746094 258.238281 279.09375 258.574219 C 276.71875 258.789062 274.332031 258.53125 271.992188 258.824219 C 270.007812 259.070312 268.015625 258.800781 266.074219 259.09375 C 264.351562 259.355469 262.628906 259.082031 260.9375 259.34375 C 259.386719 259.582031 257.835938 259.363281 256.332031 259.613281 C 254.945312 259.820312 253.589844 259.742188 252.160156 259.875 Z M 252.160156 259.875 " fill-opacity="1" fill-rule="nonzero"/><path fill="#ffa43a" d="M 296.390625 244.082031 C 295.859375 244.167969 295.457031 244.308594 295.058594 244.332031 C 293.378906 244.417969 291.695312 244.546875 290.027344 244.851562 C 288.988281 245.035156 287.902344 244.949219 286.875 245.15625 C 285.453125 245.449219 283.992188 245.40625 282.605469 245.890625 C 281.910156 246.140625 281.109375 246.078125 280.359375 246.183594 C 278.484375 246.457031 276.609375 246.714844 274.757812 247.203125 C 273.597656 247.507812 272.359375 247.527344 271.179688 247.765625 C 269.042969 248.199219 266.878906 248.460938 264.761719 249.035156 C 263.257812 249.449219 261.664062 249.535156 260.125 249.859375 C 257.925781 250.324219 255.746094 250.890625 253.554688 251.386719 C 252.992188 251.515625 252.417969 251.605469 251.84375 251.667969 C 251.628906 251.691406 251.292969 251.808594 251.300781 251.355469 C 251.300781 251.0625 251.335938 250.941406 251.703125 250.867188 C 252.570312 250.683594 253.40625 250.304688 254.273438 250.121094 C 256.839844 249.566406 259.429688 249.078125 262 248.527344 C 263.917969 248.113281 265.824219 247.617188 267.753906 247.234375 C 269.023438 246.988281 270.324219 246.910156 271.589844 246.683594 C 272.761719 246.476562 273.898438 246.128906 275.070312 245.925781 C 276.296875 245.695312 277.5625 245.644531 278.777344 245.371094 C 280.144531 245.058594 281.574219 245.113281 282.917969 244.636719 C 283.523438 244.417969 284.230469 244.582031 284.914062 244.386719 C 285.832031 244.125 286.839844 244.203125 287.804688 244.070312 C 288.910156 243.929688 290.015625 243.714844 291.132812 243.5625 C 292.011719 243.441406 292.890625 243.355469 293.777344 243.300781 C 295.535156 243.195312 297.300781 243.238281 299.035156 243 C 300.53125 242.792969 302.058594 242.976562 303.511719 242.726562 C 305.191406 242.433594 306.859375 242.664062 308.519531 242.511719 C 312.234375 242.175781 315.953125 242.316406 319.683594 242.230469 C 321.058594 242.195312 322.425781 241.894531 323.789062 241.742188 C 324.007812 241.71875 324.234375 241.859375 324.460938 241.914062 C 324.386719 242.140625 324.375 242.476562 324.222656 242.585938 C 323.898438 242.804688 323.484375 243 323.105469 243.019531 C 320.527344 243.140625 317.9375 243.226562 315.355469 243.292969 C 314.046875 243.324219 312.734375 243.269531 311.421875 243.300781 C 308.886719 243.367188 306.328125 243.335938 303.804688 243.617188 C 302.382812 243.777344 300.976562 243.636719 299.585938 243.867188 C 298.535156 244.027344 297.539062 244.070312 296.390625 244.082031 Z M 296.390625 244.082031 " fill-opacity="1" fill-rule="nonzero"/><path fill="#ffa43a" d="M 81.257812 249.652344 C 85.734375 249.589844 90.144531 249.589844 94.554688 249.589844 C 95.011719 249.589844 95.757812 249.425781 95.78125 249.957031 C 95.804688 250.519531 95.066406 250.359375 94.621094 250.367188 C 92.042969 250.457031 89.453125 250.574219 86.871094 250.628906 C 84.953125 250.671875 83.023438 250.519531 81.105469 250.660156 C 77.257812 250.933594 73.390625 250.726562 69.550781 250.964844 C 67.523438 251.09375 65.5 250.933594 63.503906 251.203125 C 62.042969 251.398438 60.589844 251.289062 59.15625 251.441406 C 57.21875 251.648438 55.289062 251.851562 53.347656 251.972656 C 51.570312 252.09375 49.804688 252.480469 48.039062 252.71875 C 47.605469 252.773438 47.160156 252.753906 46.726562 252.710938 C 46.585938 252.699219 46.378906 252.527344 46.335938 252.382812 C 46.25 252.101562 46.359375 251.960938 46.726562 251.917969 C 47.757812 251.800781 48.765625 251.539062 49.78125 251.417969 C 51.710938 251.203125 53.675781 251.179688 55.582031 250.835938 C 56.609375 250.652344 57.628906 250.78125 58.617188 250.597656 C 60.199219 250.292969 61.800781 250.5625 63.351562 250.3125 C 65.164062 250.011719 66.960938 250.261719 68.75 250.085938 C 72.769531 249.707031 76.804688 249.871094 80.824219 249.828125 C 80.976562 249.847656 81.085938 249.761719 81.257812 249.652344 Z M 81.257812 249.652344 " fill-opacity="1" fill-rule="nonzero"/><path fill="#ffa43a" d="M 299.273438 234.382812 C 301.203125 234.296875 303.023438 234.371094 304.789062 234.078125 C 306.601562 233.773438 308.398438 234.035156 310.1875 233.851562 C 313.113281 233.546875 316.0625 233.449219 318.976562 233.65625 C 321.828125 233.863281 324.667969 233.828125 327.507812 233.851562 C 328.039062 233.851562 328.570312 233.625 329.101562 233.625 C 329.382812 233.625 329.664062 233.894531 329.933594 234.035156 C 329.707031 234.242188 329.5 234.597656 329.261719 234.621094 C 327.820312 234.761719 326.347656 235.019531 324.925781 234.871094 C 320.386719 234.394531 315.835938 234.664062 311.28125 234.707031 C 309.191406 234.730469 307.066406 234.738281 304.984375 234.96875 C 303.75 235.109375 302.503906 234.976562 301.300781 235.195312 C 299.242188 235.5625 297.117188 235.410156 295.066406 235.933594 C 294.179688 236.160156 293.214844 236.082031 292.304688 236.222656 C 291.003906 236.429688 289.722656 236.746094 288.425781 236.960938 C 286.277344 237.308594 284.1875 237.808594 282.125 238.523438 C 281.964844 238.578125 281.714844 238.347656 281.5 238.25 C 281.617188 238.011719 281.671875 237.621094 281.855469 237.558594 C 282.734375 237.242188 283.621094 236.960938 284.53125 236.753906 C 286.167969 236.375 287.816406 236.03125 289.464844 235.703125 C 290.875 235.421875 292.292969 235.152344 293.722656 234.921875 C 294.546875 234.792969 295.394531 234.738281 296.226562 234.652344 C 297.203125 234.554688 298.167969 234.46875 299.273438 234.382812 Z M 299.273438 234.382812 " fill-opacity="1" fill-rule="nonzero"/><path fill="#ffa43a" d="M 54.195312 236.746094 C 57.304688 236.65625 60.296875 236.746094 63.253906 236.429688 C 65.628906 236.171875 68.011719 236.472656 70.355469 236.179688 C 72.554688 235.898438 74.765625 236.191406 76.921875 235.910156 C 78.601562 235.683594 80.261719 235.78125 81.929688 235.714844 C 82.113281 235.703125 82.308594 235.898438 82.503906 235.996094 C 82.332031 236.160156 82.179688 236.429688 81.972656 236.472656 C 81.28125 236.613281 80.5625 236.722656 79.859375 236.746094 C 76.664062 236.851562 73.453125 236.746094 70.277344 237.082031 C 67.9375 237.320312 65.605469 237.039062 63.308594 237.320312 C 60.890625 237.621094 58.464844 237.328125 56.078125 237.601562 C 54.617188 237.761719 53.164062 237.664062 51.734375 237.816406 C 49.230469 238.089844 46.726562 238.230469 44.222656 238.371094 C 42.28125 238.480469 40.363281 238.867188 38.414062 238.859375 C 38.285156 238.859375 38.109375 238.835938 38.042969 238.914062 C 37.589844 239.390625 37.253906 239 37.199219 238.675781 C 37.132812 238.242188 37.523438 238.097656 37.96875 238.066406 C 40.082031 237.914062 42.207031 237.796875 44.296875 237.535156 C 46.5 237.265625 48.6875 237.046875 50.898438 237.015625 C 51.960938 236.984375 53.011719 236.832031 54.195312 236.746094 Z M 54.195312 236.746094 " fill-opacity="1" fill-rule="nonzero"/></svg>