<svg width="67" height="28" viewBox="0 0 67 28" fill="none" xmlns="http://www.w3.org/2000/svg">
<path d="M0.28293 21V-1.43051e-06H4.39293V17.25H13.6329V21H0.28293ZM22.8762 21.36C21.3562 21.36 19.9962 21.03 18.7962 20.37C17.6162 19.69 16.6862 18.76 16.0062 17.58C15.3462 16.4 15.0162 15.04 15.0162 13.5C15.0162 11.96 15.3462 10.6 16.0062 9.42C16.6662 8.24 17.5862 7.32 18.7662 6.66C19.9462 5.98 21.2962 5.64 22.8162 5.64C24.3562 5.64 25.7162 5.98 26.8962 6.66C28.0762 7.32 28.9962 8.24 29.6562 9.42C30.3162 10.6 30.6462 11.96 30.6462 13.5C30.6462 15.04 30.3162 16.4 29.6562 17.58C28.9962 18.76 28.0762 19.69 26.8962 20.37C25.7362 21.03 24.3962 21.36 22.8762 21.36ZM22.8762 17.7C23.6162 17.7 24.2662 17.52 24.8262 17.16C25.3862 16.8 25.8162 16.31 26.1162 15.69C26.4362 15.05 26.5962 14.32 26.5962 13.5C26.5962 12.68 26.4362 11.96 26.1162 11.34C25.7962 10.7 25.3462 10.2 24.7662 9.84C24.2062 9.48 23.5562 9.3 22.8162 9.3C22.0962 9.3 21.4462 9.48 20.8662 9.84C20.3062 10.2 19.8662 10.7 19.5462 11.34C19.2262 11.96 19.0662 12.68 19.0662 13.5C19.0662 14.32 19.2262 15.05 19.5462 15.69C19.8662 16.31 20.3162 16.8 20.8962 17.16C21.4762 17.52 22.1362 17.7 22.8762 17.7ZM40.0079 27.39C38.8679 27.39 37.8579 27.31 36.9779 27.15C36.0979 26.99 35.3579 26.78 34.7579 26.52C34.1579 26.26 33.6679 26 33.2879 25.74L34.8479 22.56C35.1279 22.72 35.4979 22.9 35.9579 23.1C36.4179 23.32 36.9679 23.5 37.6079 23.64C38.2479 23.8 38.9879 23.88 39.8279 23.88C40.6279 23.88 41.3279 23.72 41.9279 23.4C42.5479 23.1 43.0279 22.62 43.3679 21.96C43.7279 21.32 43.9079 20.5 43.9079 19.5V6H47.8679V19.38C47.8679 21.06 47.5479 22.5 46.9079 23.7C46.2679 24.92 45.3579 25.84 44.1779 26.46C43.0179 27.08 41.6279 27.39 40.0079 27.39ZM39.2279 20.58C37.8479 20.58 36.6479 20.28 35.6279 19.68C34.6279 19.08 33.8479 18.24 33.2879 17.16C32.7279 16.08 32.4479 14.8 32.4479 13.32C32.4479 11.76 32.7279 10.41 33.2879 9.27C33.8479 8.11 34.6279 7.22 35.6279 6.6C36.6479 5.96 37.8479 5.64 39.2279 5.64C40.4279 5.64 41.4679 5.96 42.3479 6.6C43.2279 7.22 43.9079 8.11 44.3879 9.27C44.8679 10.43 45.1079 11.81 45.1079 13.41C45.1079 14.85 44.8679 16.11 44.3879 17.19C43.9079 18.27 43.2279 19.11 42.3479 19.71C41.4679 20.29 40.4279 20.58 39.2279 20.58ZM40.3679 17.25C41.0479 17.25 41.6379 17.08 42.1379 16.74C42.6579 16.38 43.0579 15.9 43.3379 15.3C43.6179 14.68 43.7579 13.98 43.7579 13.2C43.7579 12.4 43.6079 11.7 43.3079 11.1C43.0279 10.5 42.6279 10.03 42.1079 9.69C41.6079 9.35 41.0179 9.18 40.3379 9.18C39.6379 9.18 39.0179 9.35 38.4779 9.69C37.9379 10.03 37.5179 10.5 37.2179 11.1C36.9179 11.7 36.7579 12.4 36.7379 13.2C36.7579 13.98 36.9179 14.68 37.2179 15.3C37.5179 15.9 37.9379 16.38 38.4779 16.74C39.0379 17.08 39.6679 17.25 40.3679 17.25ZM58.3254 21.36C56.8054 21.36 55.4454 21.03 54.2454 20.37C53.0654 19.69 52.1354 18.76 51.4554 17.58C50.7954 16.4 50.4654 15.04 50.4654 13.5C50.4654 11.96 50.7954 10.6 51.4554 9.42C52.1154 8.24 53.0354 7.32 54.2154 6.66C55.3954 5.98 56.7454 5.64 58.2654 5.64C59.8054 5.64 61.1654 5.98 62.3454 6.66C63.5254 7.32 64.4454 8.24 65.1054 9.42C65.7654 10.6 66.0954 11.96 66.0954 13.5C66.0954 15.04 65.7654 16.4 65.1054 17.58C64.4454 18.76 63.5254 19.69 62.3454 20.37C61.1854 21.03 59.8454 21.36 58.3254 21.36ZM58.3254 17.7C59.0654 17.7 59.7154 17.52 60.2754 17.16C60.8354 16.8 61.2654 16.31 61.5654 15.69C61.8854 15.05 62.0454 14.32 62.0454 13.5C62.0454 12.68 61.8854 11.96 61.5654 11.34C61.2454 10.7 60.7954 10.2 60.2154 9.84C59.6554 9.48 59.0054 9.3 58.2654 9.3C57.5454 9.3 56.8954 9.48 56.3154 9.84C55.7554 10.2 55.3154 10.7 54.9954 11.34C54.6754 11.96 54.5154 12.68 54.5154 13.5C54.5154 14.32 54.6754 15.05 54.9954 15.69C55.3154 16.31 55.7654 16.8 56.3454 17.16C56.9254 17.52 57.5854 17.7 58.3254 17.7Z" fill="black"/>
</svg>
