<svg xmlns="http://www.w3.org/2000/svg" xmlns:xlink="http://www.w3.org/1999/xlink" width="500" zoomAndPan="magnify" viewBox="0 0 375 374.999991" height="500" preserveAspectRatio="xMidYMid meet" version="1.0"><defs><g/></defs><g fill="#00c4cc" fill-opacity="1"><g transform="translate(40.676011, 199.506276)"><g><path d="M 31.125 -53.46875 L 32.375 -53.46875 C 34.9375 -53.46875 37.414062 -53.113281 39.8125 -52.40625 C 42.21875 -51.695312 44.414062 -50.660156 46.40625 -49.296875 C 48.394531 -47.941406 50.117188 -46.269531 51.578125 -44.28125 C 53.046875 -42.300781 54.117188 -40.03125 54.796875 -37.46875 C 55.003906 -36.582031 55.160156 -35.835938 55.265625 -35.234375 C 55.367188 -34.628906 55.421875 -34.144531 55.421875 -33.78125 L 55.421875 -33.3125 L 39.90625 -33.3125 L 39.59375 -34.09375 C 39.269531 -35.144531 38.78125 -36.21875 38.125 -37.3125 C 37.476562 -38.40625 36.789062 -39.191406 36.0625 -39.671875 C 34.957031 -40.609375 33.46875 -41.179688 31.59375 -41.390625 L 31.125 -41.46875 Z M 27.59375 -53.390625 C 27.695312 -53.441406 28.007812 -53.46875 28.53125 -53.46875 L 29.078125 -53.46875 L 29.078125 -41.703125 L 28.296875 -41.390625 C 26.785156 -40.816406 25.425781 -39.757812 24.21875 -38.21875 C 23.019531 -36.675781 22.054688 -34.726562 21.328125 -32.375 C 20.898438 -31.070312 20.609375 -29.566406 20.453125 -27.859375 C 20.296875 -26.160156 20.269531 -24.320312 20.375 -22.34375 C 20.425781 -21.082031 20.554688 -19.640625 20.765625 -18.015625 C 20.984375 -16.398438 21.328125 -14.820312 21.796875 -13.28125 C 22.265625 -11.738281 22.898438 -10.328125 23.703125 -9.046875 C 24.515625 -7.773438 25.578125 -6.820312 26.890625 -6.1875 C 27.148438 -6.082031 27.421875 -5.988281 27.703125 -5.90625 C 27.992188 -5.832031 28.269531 -5.742188 28.53125 -5.640625 L 29.234375 -5.484375 L 29.234375 6.421875 L 27.984375 6.34375 C 20.878906 5.925781 15.3125 3.722656 11.28125 -0.265625 C 7.257812 -4.265625 4.78125 -9.640625 3.84375 -16.390625 C 3.789062 -16.910156 3.738281 -17.5625 3.6875 -18.34375 C 3.632812 -19.125 3.609375 -20.09375 3.609375 -21.25 C 3.503906 -23.59375 3.503906 -25.367188 3.609375 -26.578125 C 4.285156 -33.785156 6.660156 -39.753906 10.734375 -44.484375 C 14.816406 -49.210938 20.4375 -52.179688 27.59375 -53.390625 Z M 39.671875 -13.328125 L 39.90625 -13.875 L 47.890625 -13.875 C 53.171875 -13.976562 55.8125 -13.953125 55.8125 -13.796875 C 55.8125 -13.691406 55.734375 -13.117188 55.578125 -12.078125 C 55.054688 -9.148438 54.128906 -6.546875 52.796875 -4.265625 C 51.460938 -1.992188 49.800781 -0.078125 47.8125 1.484375 C 45.832031 3.054688 43.570312 4.257812 41.03125 5.09375 C 38.5 5.925781 35.769531 6.367188 32.84375 6.421875 L 31.125 6.5 L 31.125 -5.25 L 31.75 -5.328125 C 33.789062 -5.585938 35.4375 -6.296875 36.6875 -7.453125 C 38.09375 -8.910156 39.085938 -10.867188 39.671875 -13.328125 Z M 39.671875 -13.328125 "/></g></g></g><g fill="#00c4cc" fill-opacity="1"><g transform="translate(99.229193, 199.506276)"><g><path d="M 4.78125 -55.1875 L 4.3125 -55.5 L 21.71875 -55.5 L 21.71875 5.953125 L 5.875 5.953125 L 5.875 -22.8125 C 5.925781 -30.125 5.9375 -36.078125 5.90625 -40.671875 C 5.882812 -45.273438 5.875 -48.3125 5.875 -49.78125 C 5.820312 -52.707031 5.742188 -54.273438 5.640625 -54.484375 C 5.484375 -54.796875 5.195312 -55.03125 4.78125 -55.1875 Z M 4.78125 -55.1875 "/></g></g></g><g fill="#00c4cc" fill-opacity="1"><g transform="translate(126.820518, 199.506276)"><g><path d="M 25.875 -39.90625 C 28.0625 -39.90625 30.1875 -39.742188 32.25 -39.421875 C 34.320312 -39.109375 36.207031 -38.535156 37.90625 -37.703125 C 39.601562 -36.867188 41.09375 -35.71875 42.375 -34.25 C 43.65625 -32.789062 44.632812 -30.910156 45.3125 -28.609375 L 45.703125 -27.4375 L 45.703125 5.953125 L 30.265625 5.953125 L 30.265625 -13.484375 L 25.953125 -13.40625 L 21.5625 -13.40625 L 20.6875 -13.015625 C 19.800781 -12.597656 19.226562 -11.734375 18.96875 -10.421875 C 18.550781 -8.441406 18.941406 -6.820312 20.140625 -5.5625 C 20.929688 -4.625 22.316406 -4.15625 24.296875 -4.15625 C 25.035156 -4.15625 25.769531 -4.21875 26.5 -4.34375 C 27.226562 -4.476562 27.90625 -4.703125 28.53125 -5.015625 C 28.632812 -5.015625 28.6875 -4.960938 28.6875 -4.859375 C 28.738281 -4.648438 28.765625 -3.132812 28.765625 -0.3125 L 28.765625 4.390625 L 27.984375 4.859375 C 26.628906 5.535156 25.164062 6.015625 23.59375 6.296875 C 22.03125 6.585938 20.488281 6.734375 18.96875 6.734375 C 18.082031 6.734375 17.242188 6.691406 16.453125 6.609375 C 15.671875 6.535156 14.914062 6.394531 14.1875 6.1875 C 10.320312 5.144531 7.316406 3.109375 5.171875 0.078125 C 3.023438 -2.953125 2.03125 -6.503906 2.1875 -10.578125 C 2.507812 -17.210938 6.066406 -21.1875 12.859375 -22.5 C 13.585938 -22.601562 16.695312 -22.707031 22.1875 -22.8125 L 30.265625 -22.890625 L 30.1875 -24.296875 C 30.082031 -26.285156 29.53125 -27.566406 28.53125 -28.140625 C 27.539062 -28.710938 26.15625 -29 24.375 -29 C 24.0625 -29 23.628906 -28.972656 23.078125 -28.921875 C 22.535156 -28.867188 21.972656 -28.773438 21.390625 -28.640625 C 20.816406 -28.515625 20.296875 -28.332031 19.828125 -28.09375 C 19.359375 -27.863281 19.046875 -27.539062 18.890625 -27.125 L 18.734375 -26.734375 L 4.390625 -26.734375 C 4.390625 -27.046875 4.832031 -28.144531 5.71875 -30.03125 C 6.5 -31.4375 7.453125 -32.765625 8.578125 -34.015625 C 9.703125 -35.273438 10.789062 -36.269531 11.84375 -37 C 13.976562 -38.351562 16.234375 -39.175781 18.609375 -39.46875 C 20.992188 -39.757812 23.414062 -39.90625 25.875 -39.90625 Z M 25.875 -39.90625 "/></g></g></g><g fill="#00c4cc" fill-opacity="1"><g transform="translate(177.613634, 199.506276)"><g><path d="M 23.59375 -39.828125 C 26.101562 -39.828125 28.664062 -39.429688 31.28125 -38.640625 C 33.894531 -37.859375 36.140625 -36.660156 38.015625 -35.046875 C 39.066406 -34.097656 40.007812 -32.8125 40.84375 -31.1875 C 41.675781 -29.570312 42.171875 -28.0625 42.328125 -26.65625 L 42.484375 -25.875 L 27.75 -25.875 L 27.59375 -26.65625 C 27.382812 -27.851562 26.882812 -28.753906 26.09375 -29.359375 C 25.3125 -29.960938 24.375 -30.265625 23.28125 -30.265625 C 21.976562 -30.265625 20.929688 -30.023438 20.140625 -29.546875 C 19.460938 -29.078125 19.019531 -28.515625 18.8125 -27.859375 C 18.601562 -27.210938 18.65625 -26.601562 18.96875 -26.03125 C 19.226562 -25.664062 19.566406 -25.347656 19.984375 -25.078125 C 20.398438 -24.816406 20.898438 -24.554688 21.484375 -24.296875 C 22.628906 -23.828125 24.742188 -23.226562 27.828125 -22.5 C 29.023438 -22.238281 30.289062 -21.910156 31.625 -21.515625 C 32.957031 -21.128906 34.25 -20.644531 35.5 -20.0625 C 36.757812 -19.488281 37.925781 -18.785156 39 -17.953125 C 40.070312 -17.117188 40.921875 -16.125 41.546875 -14.96875 C 42.898438 -12.664062 43.421875 -10.03125 43.109375 -7.0625 C 42.847656 -4.445312 42.101562 -2.265625 40.875 -0.515625 C 39.644531 1.234375 38.113281 2.628906 36.28125 3.671875 C 34.457031 4.722656 32.4375 5.46875 30.21875 5.90625 C 28 6.351562 25.738281 6.578125 23.4375 6.578125 C 21.082031 6.578125 18.703125 6.367188 16.296875 5.953125 C 13.898438 5.535156 11.707031 4.789062 9.71875 3.71875 C 7.726562 2.644531 6.066406 1.195312 4.734375 -0.625 C 3.410156 -2.457031 2.617188 -4.785156 2.359375 -7.609375 L 2.265625 -8.46875 L 9.640625 -8.390625 L 16.9375 -8.390625 L 17.09375 -7.609375 C 17.195312 -6.816406 17.46875 -6.160156 17.90625 -5.640625 C 18.351562 -5.117188 18.875 -4.675781 19.46875 -4.3125 C 20.070312 -3.945312 20.738281 -3.6875 21.46875 -3.53125 C 22.207031 -3.375 22.914062 -3.296875 23.59375 -3.296875 C 24.164062 -3.296875 24.804688 -3.359375 25.515625 -3.484375 C 26.222656 -3.617188 26.785156 -3.894531 27.203125 -4.3125 C 27.722656 -4.78125 28.070312 -5.3125 28.25 -5.90625 C 28.4375 -6.507812 28.398438 -7.078125 28.140625 -7.609375 C 27.929688 -8.023438 27.65625 -8.390625 27.3125 -8.703125 C 26.976562 -9.015625 26.550781 -9.300781 26.03125 -9.5625 C 25.613281 -9.769531 24.789062 -10.054688 23.5625 -10.421875 C 22.332031 -10.785156 20.722656 -11.257812 18.734375 -11.84375 C 13.816406 -13.195312 10.367188 -14.550781 8.390625 -15.90625 C 6.710938 -17.007812 5.519531 -18.367188 4.8125 -19.984375 C 4.113281 -21.609375 3.765625 -23.359375 3.765625 -25.234375 C 3.710938 -27.222656 4.050781 -29.054688 4.78125 -30.734375 C 5.71875 -32.554688 6.863281 -34.054688 8.21875 -35.234375 C 9.582031 -36.410156 11.085938 -37.335938 12.734375 -38.015625 C 14.378906 -38.691406 16.128906 -39.160156 17.984375 -39.421875 C 19.847656 -39.691406 21.71875 -39.828125 23.59375 -39.828125 Z M 23.59375 -39.828125 "/></g></g></g><g fill="#00c4cc" fill-opacity="1"><g transform="translate(223.155008, 199.506276)"><g><path d="M 23.59375 -39.828125 C 26.101562 -39.828125 28.664062 -39.429688 31.28125 -38.640625 C 33.894531 -37.859375 36.140625 -36.660156 38.015625 -35.046875 C 39.066406 -34.097656 40.007812 -32.8125 40.84375 -31.1875 C 41.675781 -29.570312 42.171875 -28.0625 42.328125 -26.65625 L 42.484375 -25.875 L 27.75 -25.875 L 27.59375 -26.65625 C 27.382812 -27.851562 26.882812 -28.753906 26.09375 -29.359375 C 25.3125 -29.960938 24.375 -30.265625 23.28125 -30.265625 C 21.976562 -30.265625 20.929688 -30.023438 20.140625 -29.546875 C 19.460938 -29.078125 19.019531 -28.515625 18.8125 -27.859375 C 18.601562 -27.210938 18.65625 -26.601562 18.96875 -26.03125 C 19.226562 -25.664062 19.566406 -25.347656 19.984375 -25.078125 C 20.398438 -24.816406 20.898438 -24.554688 21.484375 -24.296875 C 22.628906 -23.828125 24.742188 -23.226562 27.828125 -22.5 C 29.023438 -22.238281 30.289062 -21.910156 31.625 -21.515625 C 32.957031 -21.128906 34.25 -20.644531 35.5 -20.0625 C 36.757812 -19.488281 37.925781 -18.785156 39 -17.953125 C 40.070312 -17.117188 40.921875 -16.125 41.546875 -14.96875 C 42.898438 -12.664062 43.421875 -10.03125 43.109375 -7.0625 C 42.847656 -4.445312 42.101562 -2.265625 40.875 -0.515625 C 39.644531 1.234375 38.113281 2.628906 36.28125 3.671875 C 34.457031 4.722656 32.4375 5.46875 30.21875 5.90625 C 28 6.351562 25.738281 6.578125 23.4375 6.578125 C 21.082031 6.578125 18.703125 6.367188 16.296875 5.953125 C 13.898438 5.535156 11.707031 4.789062 9.71875 3.71875 C 7.726562 2.644531 6.066406 1.195312 4.734375 -0.625 C 3.410156 -2.457031 2.617188 -4.785156 2.359375 -7.609375 L 2.265625 -8.46875 L 9.640625 -8.390625 L 16.9375 -8.390625 L 17.09375 -7.609375 C 17.195312 -6.816406 17.46875 -6.160156 17.90625 -5.640625 C 18.351562 -5.117188 18.875 -4.675781 19.46875 -4.3125 C 20.070312 -3.945312 20.738281 -3.6875 21.46875 -3.53125 C 22.207031 -3.375 22.914062 -3.296875 23.59375 -3.296875 C 24.164062 -3.296875 24.804688 -3.359375 25.515625 -3.484375 C 26.222656 -3.617188 26.785156 -3.894531 27.203125 -4.3125 C 27.722656 -4.78125 28.070312 -5.3125 28.25 -5.90625 C 28.4375 -6.507812 28.398438 -7.078125 28.140625 -7.609375 C 27.929688 -8.023438 27.65625 -8.390625 27.3125 -8.703125 C 26.976562 -9.015625 26.550781 -9.300781 26.03125 -9.5625 C 25.613281 -9.769531 24.789062 -10.054688 23.5625 -10.421875 C 22.332031 -10.785156 20.722656 -11.257812 18.734375 -11.84375 C 13.816406 -13.195312 10.367188 -14.550781 8.390625 -15.90625 C 6.710938 -17.007812 5.519531 -18.367188 4.8125 -19.984375 C 4.113281 -21.609375 3.765625 -23.359375 3.765625 -25.234375 C 3.710938 -27.222656 4.050781 -29.054688 4.78125 -30.734375 C 5.71875 -32.554688 6.863281 -34.054688 8.21875 -35.234375 C 9.582031 -36.410156 11.085938 -37.335938 12.734375 -38.015625 C 14.378906 -38.691406 16.128906 -39.160156 17.984375 -39.421875 C 19.847656 -39.691406 21.71875 -39.828125 23.59375 -39.828125 Z M 23.59375 -39.828125 "/></g></g></g><g fill="#000000" fill-opacity="1"><g transform="translate(61.770008, 242.006821)"><g><path d="M 6.640625 -4.765625 L 6.640625 0 L 4.375 0 L 4.375 -4.765625 L -0.109375 -12.296875 L 1.90625 -12.296875 C 2.101562 -12.296875 2.257812 -12.242188 2.375 -12.140625 C 2.488281 -12.046875 2.585938 -11.925781 2.671875 -11.78125 L 4.90625 -7.671875 C 5.039062 -7.429688 5.15625 -7.203125 5.25 -6.984375 C 5.351562 -6.773438 5.445312 -6.5625 5.53125 -6.34375 C 5.601562 -6.5625 5.6875 -6.773438 5.78125 -6.984375 C 5.875 -7.203125 5.984375 -7.429688 6.109375 -7.671875 L 8.34375 -11.78125 C 8.40625 -11.90625 8.5 -12.019531 8.625 -12.125 C 8.75 -12.238281 8.910156 -12.296875 9.109375 -12.296875 L 11.125 -12.296875 Z M 6.640625 -4.765625 "/></g></g></g><g fill="#000000" fill-opacity="1"><g transform="translate(72.781043, 242.006821)"><g><path d="M 4.890625 -8.859375 C 5.535156 -8.859375 6.125 -8.753906 6.65625 -8.546875 C 7.1875 -8.335938 7.640625 -8.039062 8.015625 -7.65625 C 8.390625 -7.269531 8.679688 -6.796875 8.890625 -6.234375 C 9.097656 -5.679688 9.203125 -5.0625 9.203125 -4.375 C 9.203125 -3.6875 9.097656 -3.0625 8.890625 -2.5 C 8.679688 -1.945312 8.390625 -1.472656 8.015625 -1.078125 C 7.640625 -0.691406 7.1875 -0.394531 6.65625 -0.1875 C 6.125 0.0195312 5.535156 0.125 4.890625 0.125 C 4.242188 0.125 3.65625 0.0195312 3.125 -0.1875 C 2.59375 -0.394531 2.132812 -0.691406 1.75 -1.078125 C 1.375 -1.472656 1.082031 -1.945312 0.875 -2.5 C 0.664062 -3.0625 0.5625 -3.6875 0.5625 -4.375 C 0.5625 -5.0625 0.664062 -5.679688 0.875 -6.234375 C 1.082031 -6.796875 1.375 -7.269531 1.75 -7.65625 C 2.132812 -8.039062 2.59375 -8.335938 3.125 -8.546875 C 3.65625 -8.753906 4.242188 -8.859375 4.890625 -8.859375 Z M 4.890625 -1.484375 C 5.617188 -1.484375 6.15625 -1.726562 6.5 -2.21875 C 6.851562 -2.707031 7.03125 -3.421875 7.03125 -4.359375 C 7.03125 -5.296875 6.851562 -6.007812 6.5 -6.5 C 6.15625 -7 5.617188 -7.25 4.890625 -7.25 C 4.160156 -7.25 3.617188 -7 3.265625 -6.5 C 2.910156 -6.007812 2.734375 -5.296875 2.734375 -4.359375 C 2.734375 -3.421875 2.910156 -2.707031 3.265625 -2.21875 C 3.617188 -1.726562 4.160156 -1.484375 4.890625 -1.484375 Z M 4.890625 -1.484375 "/></g></g></g><g fill="#000000" fill-opacity="1"><g transform="translate(82.543139, 242.006821)"><g><path d="M 8.546875 -8.71875 L 8.546875 0 L 7.265625 0 C 6.984375 0 6.804688 -0.125 6.734375 -0.375 L 6.59375 -1.078125 C 6.238281 -0.710938 5.84375 -0.414062 5.40625 -0.1875 C 4.976562 0.03125 4.472656 0.140625 3.890625 0.140625 C 3.410156 0.140625 2.988281 0.0625 2.625 -0.09375 C 2.257812 -0.257812 1.953125 -0.488281 1.703125 -0.78125 C 1.453125 -1.082031 1.265625 -1.4375 1.140625 -1.84375 C 1.015625 -2.25 0.953125 -2.691406 0.953125 -3.171875 L 0.953125 -8.71875 L 3.046875 -8.71875 L 3.046875 -3.171875 C 3.046875 -2.640625 3.171875 -2.226562 3.421875 -1.9375 C 3.671875 -1.644531 4.039062 -1.5 4.53125 -1.5 C 4.894531 -1.5 5.234375 -1.578125 5.546875 -1.734375 C 5.867188 -1.898438 6.171875 -2.125 6.453125 -2.40625 L 6.453125 -8.71875 Z M 8.546875 -8.71875 "/></g></g></g><g fill="#000000" fill-opacity="1"><g transform="translate(92.12681, 242.006821)"><g><path d="M 3.015625 -7.203125 C 3.285156 -7.722656 3.609375 -8.128906 3.984375 -8.421875 C 4.359375 -8.722656 4.800781 -8.875 5.3125 -8.875 C 5.71875 -8.875 6.039062 -8.789062 6.28125 -8.625 L 6.140625 -7.046875 C 6.117188 -6.941406 6.078125 -6.867188 6.015625 -6.828125 C 5.960938 -6.785156 5.894531 -6.765625 5.8125 -6.765625 C 5.71875 -6.765625 5.585938 -6.773438 5.421875 -6.796875 C 5.253906 -6.828125 5.09375 -6.84375 4.9375 -6.84375 C 4.707031 -6.84375 4.5 -6.804688 4.3125 -6.734375 C 4.132812 -6.671875 3.972656 -6.578125 3.828125 -6.453125 C 3.679688 -6.328125 3.550781 -6.171875 3.4375 -5.984375 C 3.332031 -5.804688 3.234375 -5.601562 3.140625 -5.375 L 3.140625 0 L 1.03125 0 L 1.03125 -8.71875 L 2.265625 -8.71875 C 2.484375 -8.71875 2.632812 -8.675781 2.71875 -8.59375 C 2.800781 -8.519531 2.859375 -8.382812 2.890625 -8.1875 Z M 3.015625 -7.203125 "/></g></g></g><g fill="#000000" fill-opacity="1"><g transform="translate(98.464948, 242.006821)"><g/></g></g><g fill="#000000" fill-opacity="1"><g transform="translate(102.594079, 242.006821)"><g><path d="M 5.359375 -6.109375 C 5.785156 -6.109375 6.148438 -6.160156 6.453125 -6.265625 C 6.765625 -6.367188 7.023438 -6.519531 7.234375 -6.71875 C 7.441406 -6.914062 7.597656 -7.15625 7.703125 -7.4375 C 7.804688 -7.71875 7.859375 -8.03125 7.859375 -8.375 C 7.859375 -8.695312 7.804688 -8.992188 7.703125 -9.265625 C 7.597656 -9.535156 7.441406 -9.757812 7.234375 -9.9375 C 7.035156 -10.125 6.78125 -10.265625 6.46875 -10.359375 C 6.15625 -10.460938 5.785156 -10.515625 5.359375 -10.515625 L 3.65625 -10.515625 L 3.65625 -6.109375 Z M 5.359375 -12.296875 C 6.179688 -12.296875 6.890625 -12.195312 7.484375 -12 C 8.085938 -11.8125 8.585938 -11.539062 8.984375 -11.1875 C 9.378906 -10.84375 9.671875 -10.429688 9.859375 -9.953125 C 10.046875 -9.472656 10.140625 -8.945312 10.140625 -8.375 C 10.140625 -7.78125 10.039062 -7.234375 9.84375 -6.734375 C 9.644531 -6.242188 9.347656 -5.816406 8.953125 -5.453125 C 8.554688 -5.097656 8.054688 -4.820312 7.453125 -4.625 C 6.859375 -4.425781 6.160156 -4.328125 5.359375 -4.328125 L 3.65625 -4.328125 L 3.65625 0 L 1.375 0 L 1.375 -12.296875 Z M 5.359375 -12.296875 "/></g></g></g><g fill="#000000" fill-opacity="1"><g transform="translate(113.112332, 242.006821)"><g><path d="M 6.65625 -5.359375 C 6.65625 -5.628906 6.613281 -5.882812 6.53125 -6.125 C 6.457031 -6.375 6.34375 -6.585938 6.1875 -6.765625 C 6.039062 -6.941406 5.847656 -7.082031 5.609375 -7.1875 C 5.378906 -7.300781 5.109375 -7.359375 4.796875 -7.359375 C 4.191406 -7.359375 3.710938 -7.179688 3.359375 -6.828125 C 3.015625 -6.484375 2.789062 -5.992188 2.6875 -5.359375 Z M 2.65625 -4.09375 C 2.6875 -3.644531 2.765625 -3.257812 2.890625 -2.9375 C 3.015625 -2.613281 3.175781 -2.34375 3.375 -2.125 C 3.582031 -1.914062 3.828125 -1.757812 4.109375 -1.65625 C 4.390625 -1.550781 4.703125 -1.5 5.046875 -1.5 C 5.378906 -1.5 5.671875 -1.535156 5.921875 -1.609375 C 6.171875 -1.691406 6.382812 -1.78125 6.5625 -1.875 C 6.75 -1.96875 6.910156 -2.054688 7.046875 -2.140625 C 7.191406 -2.222656 7.328125 -2.265625 7.453125 -2.265625 C 7.628906 -2.265625 7.757812 -2.195312 7.84375 -2.0625 L 8.453125 -1.296875 C 8.210938 -1.023438 7.945312 -0.796875 7.65625 -0.609375 C 7.375 -0.429688 7.078125 -0.285156 6.765625 -0.171875 C 6.453125 -0.0664062 6.128906 0.00390625 5.796875 0.046875 C 5.472656 0.0976562 5.160156 0.125 4.859375 0.125 C 4.242188 0.125 3.675781 0.0234375 3.15625 -0.171875 C 2.632812 -0.367188 2.179688 -0.664062 1.796875 -1.0625 C 1.410156 -1.457031 1.109375 -1.945312 0.890625 -2.53125 C 0.671875 -3.113281 0.5625 -3.785156 0.5625 -4.546875 C 0.5625 -5.140625 0.65625 -5.695312 0.84375 -6.21875 C 1.039062 -6.75 1.316406 -7.207031 1.671875 -7.59375 C 2.035156 -7.976562 2.476562 -8.285156 3 -8.515625 C 3.519531 -8.742188 4.101562 -8.859375 4.75 -8.859375 C 5.300781 -8.859375 5.804688 -8.769531 6.265625 -8.59375 C 6.734375 -8.414062 7.132812 -8.15625 7.46875 -7.8125 C 7.800781 -7.476562 8.0625 -7.066406 8.25 -6.578125 C 8.445312 -6.085938 8.546875 -5.53125 8.546875 -4.90625 C 8.546875 -4.582031 8.507812 -4.363281 8.4375 -4.25 C 8.375 -4.144531 8.242188 -4.09375 8.046875 -4.09375 Z M 2.65625 -4.09375 "/></g></g></g><g fill="#000000" fill-opacity="1"><g transform="translate(122.186237, 242.006821)"><g><path d="M 3.015625 -7.203125 C 3.285156 -7.722656 3.609375 -8.128906 3.984375 -8.421875 C 4.359375 -8.722656 4.800781 -8.875 5.3125 -8.875 C 5.71875 -8.875 6.039062 -8.789062 6.28125 -8.625 L 6.140625 -7.046875 C 6.117188 -6.941406 6.078125 -6.867188 6.015625 -6.828125 C 5.960938 -6.785156 5.894531 -6.765625 5.8125 -6.765625 C 5.71875 -6.765625 5.585938 -6.773438 5.421875 -6.796875 C 5.253906 -6.828125 5.09375 -6.84375 4.9375 -6.84375 C 4.707031 -6.84375 4.5 -6.804688 4.3125 -6.734375 C 4.132812 -6.671875 3.972656 -6.578125 3.828125 -6.453125 C 3.679688 -6.328125 3.550781 -6.171875 3.4375 -5.984375 C 3.332031 -5.804688 3.234375 -5.601562 3.140625 -5.375 L 3.140625 0 L 1.03125 0 L 1.03125 -8.71875 L 2.265625 -8.71875 C 2.484375 -8.71875 2.632812 -8.675781 2.71875 -8.59375 C 2.800781 -8.519531 2.859375 -8.382812 2.890625 -8.1875 Z M 3.015625 -7.203125 "/></g></g></g><g fill="#000000" fill-opacity="1"><g transform="translate(128.524375, 242.006821)"><g><path d="M 6.359375 -7.015625 C 6.296875 -6.929688 6.234375 -6.867188 6.171875 -6.828125 C 6.117188 -6.796875 6.039062 -6.78125 5.9375 -6.78125 C 5.832031 -6.78125 5.722656 -6.804688 5.609375 -6.859375 C 5.492188 -6.910156 5.359375 -6.972656 5.203125 -7.046875 C 5.054688 -7.117188 4.882812 -7.179688 4.6875 -7.234375 C 4.488281 -7.296875 4.257812 -7.328125 4 -7.328125 C 3.582031 -7.328125 3.253906 -7.238281 3.015625 -7.0625 C 2.785156 -6.882812 2.671875 -6.65625 2.671875 -6.375 C 2.671875 -6.1875 2.726562 -6.03125 2.84375 -5.90625 C 2.96875 -5.78125 3.128906 -5.664062 3.328125 -5.5625 C 3.535156 -5.46875 3.765625 -5.378906 4.015625 -5.296875 C 4.273438 -5.222656 4.535156 -5.140625 4.796875 -5.046875 C 5.054688 -4.960938 5.3125 -4.863281 5.5625 -4.75 C 5.820312 -4.632812 6.050781 -4.484375 6.25 -4.296875 C 6.457031 -4.117188 6.617188 -3.90625 6.734375 -3.65625 C 6.859375 -3.414062 6.921875 -3.117188 6.921875 -2.765625 C 6.921875 -2.347656 6.847656 -1.960938 6.703125 -1.609375 C 6.554688 -1.253906 6.332031 -0.945312 6.03125 -0.6875 C 5.738281 -0.425781 5.375 -0.222656 4.9375 -0.078125 C 4.507812 0.0664062 4.007812 0.140625 3.4375 0.140625 C 3.132812 0.140625 2.84375 0.109375 2.5625 0.046875 C 2.28125 -0.00390625 2.003906 -0.078125 1.734375 -0.171875 C 1.472656 -0.265625 1.226562 -0.375 1 -0.5 C 0.78125 -0.632812 0.585938 -0.78125 0.421875 -0.9375 L 0.90625 -1.734375 C 0.96875 -1.828125 1.039062 -1.898438 1.125 -1.953125 C 1.207031 -2.003906 1.3125 -2.03125 1.4375 -2.03125 C 1.570312 -2.03125 1.695312 -1.992188 1.8125 -1.921875 C 1.925781 -1.847656 2.0625 -1.769531 2.21875 -1.6875 C 2.375 -1.601562 2.550781 -1.519531 2.75 -1.4375 C 2.957031 -1.363281 3.222656 -1.328125 3.546875 -1.328125 C 3.796875 -1.328125 4.007812 -1.359375 4.1875 -1.421875 C 4.363281 -1.484375 4.507812 -1.5625 4.625 -1.65625 C 4.738281 -1.75 4.820312 -1.859375 4.875 -1.984375 C 4.9375 -2.117188 4.96875 -2.253906 4.96875 -2.390625 C 4.96875 -2.585938 4.90625 -2.75 4.78125 -2.875 C 4.65625 -3.007812 4.492188 -3.125 4.296875 -3.21875 C 4.097656 -3.320312 3.867188 -3.410156 3.609375 -3.484375 C 3.347656 -3.566406 3.082031 -3.648438 2.8125 -3.734375 C 2.539062 -3.828125 2.273438 -3.929688 2.015625 -4.046875 C 1.765625 -4.171875 1.535156 -4.328125 1.328125 -4.515625 C 1.128906 -4.703125 0.96875 -4.929688 0.84375 -5.203125 C 0.726562 -5.484375 0.671875 -5.816406 0.671875 -6.203125 C 0.671875 -6.554688 0.738281 -6.894531 0.875 -7.21875 C 1.019531 -7.539062 1.226562 -7.820312 1.5 -8.0625 C 1.78125 -8.300781 2.125 -8.492188 2.53125 -8.640625 C 2.945312 -8.785156 3.425781 -8.859375 3.96875 -8.859375 C 4.5625 -8.859375 5.101562 -8.757812 5.59375 -8.5625 C 6.09375 -8.363281 6.503906 -8.101562 6.828125 -7.78125 Z M 6.359375 -7.015625 "/></g></g></g><g fill="#000000" fill-opacity="1"><g transform="translate(135.992503, 242.006821)"><g><path d="M 4.890625 -8.859375 C 5.535156 -8.859375 6.125 -8.753906 6.65625 -8.546875 C 7.1875 -8.335938 7.640625 -8.039062 8.015625 -7.65625 C 8.390625 -7.269531 8.679688 -6.796875 8.890625 -6.234375 C 9.097656 -5.679688 9.203125 -5.0625 9.203125 -4.375 C 9.203125 -3.6875 9.097656 -3.0625 8.890625 -2.5 C 8.679688 -1.945312 8.390625 -1.472656 8.015625 -1.078125 C 7.640625 -0.691406 7.1875 -0.394531 6.65625 -0.1875 C 6.125 0.0195312 5.535156 0.125 4.890625 0.125 C 4.242188 0.125 3.65625 0.0195312 3.125 -0.1875 C 2.59375 -0.394531 2.132812 -0.691406 1.75 -1.078125 C 1.375 -1.472656 1.082031 -1.945312 0.875 -2.5 C 0.664062 -3.0625 0.5625 -3.6875 0.5625 -4.375 C 0.5625 -5.0625 0.664062 -5.679688 0.875 -6.234375 C 1.082031 -6.796875 1.375 -7.269531 1.75 -7.65625 C 2.132812 -8.039062 2.59375 -8.335938 3.125 -8.546875 C 3.65625 -8.753906 4.242188 -8.859375 4.890625 -8.859375 Z M 4.890625 -1.484375 C 5.617188 -1.484375 6.15625 -1.726562 6.5 -2.21875 C 6.851562 -2.707031 7.03125 -3.421875 7.03125 -4.359375 C 7.03125 -5.296875 6.851562 -6.007812 6.5 -6.5 C 6.15625 -7 5.617188 -7.25 4.890625 -7.25 C 4.160156 -7.25 3.617188 -7 3.265625 -6.5 C 2.910156 -6.007812 2.734375 -5.296875 2.734375 -4.359375 C 2.734375 -3.421875 2.910156 -2.707031 3.265625 -2.21875 C 3.617188 -1.726562 4.160156 -1.484375 4.890625 -1.484375 Z M 4.890625 -1.484375 "/></g></g></g><g fill="#000000" fill-opacity="1"><g transform="translate(145.754599, 242.006821)"><g><path d="M 3 -7.65625 C 3.175781 -7.820312 3.359375 -7.976562 3.546875 -8.125 C 3.742188 -8.28125 3.953125 -8.410156 4.171875 -8.515625 C 4.390625 -8.617188 4.625 -8.703125 4.875 -8.765625 C 5.125 -8.828125 5.394531 -8.859375 5.6875 -8.859375 C 6.164062 -8.859375 6.585938 -8.773438 6.953125 -8.609375 C 7.328125 -8.453125 7.632812 -8.226562 7.875 -7.9375 C 8.125 -7.644531 8.3125 -7.296875 8.4375 -6.890625 C 8.570312 -6.484375 8.640625 -6.035156 8.640625 -5.546875 L 8.640625 0 L 6.53125 0 L 6.53125 -5.546875 C 6.53125 -6.078125 6.410156 -6.488281 6.171875 -6.78125 C 5.929688 -7.070312 5.5625 -7.21875 5.0625 -7.21875 C 4.695312 -7.21875 4.351562 -7.132812 4.03125 -6.96875 C 3.71875 -6.8125 3.421875 -6.59375 3.140625 -6.3125 L 3.140625 0 L 1.03125 0 L 1.03125 -8.71875 L 2.328125 -8.71875 C 2.597656 -8.71875 2.773438 -8.59375 2.859375 -8.34375 Z M 3 -7.65625 "/></g></g></g><g fill="#000000" fill-opacity="1"><g transform="translate(155.33827, 242.006821)"><g><path d="M 5.640625 -3.71875 C 5.035156 -3.695312 4.523438 -3.644531 4.109375 -3.5625 C 3.703125 -3.488281 3.375 -3.390625 3.125 -3.265625 C 2.875 -3.148438 2.691406 -3.015625 2.578125 -2.859375 C 2.472656 -2.703125 2.421875 -2.53125 2.421875 -2.34375 C 2.421875 -1.96875 2.53125 -1.703125 2.75 -1.546875 C 2.96875 -1.390625 3.253906 -1.3125 3.609375 -1.3125 C 4.035156 -1.3125 4.40625 -1.390625 4.71875 -1.546875 C 5.03125 -1.703125 5.335938 -1.9375 5.640625 -2.25 Z M 0.828125 -7.5 C 1.835938 -8.414062 3.046875 -8.875 4.453125 -8.875 C 4.960938 -8.875 5.414062 -8.789062 5.8125 -8.625 C 6.21875 -8.457031 6.5625 -8.222656 6.84375 -7.921875 C 7.125 -7.628906 7.332031 -7.273438 7.46875 -6.859375 C 7.613281 -6.453125 7.6875 -6.003906 7.6875 -5.515625 L 7.6875 0 L 6.734375 0 C 6.535156 0 6.382812 -0.0234375 6.28125 -0.078125 C 6.175781 -0.140625 6.09375 -0.265625 6.03125 -0.453125 L 5.84375 -1.078125 C 5.625 -0.878906 5.40625 -0.703125 5.1875 -0.546875 C 4.976562 -0.398438 4.757812 -0.273438 4.53125 -0.171875 C 4.3125 -0.078125 4.070312 -0.00390625 3.8125 0.046875 C 3.550781 0.109375 3.265625 0.140625 2.953125 0.140625 C 2.585938 0.140625 2.25 0.09375 1.9375 0 C 1.625 -0.101562 1.351562 -0.253906 1.125 -0.453125 C 0.90625 -0.648438 0.734375 -0.894531 0.609375 -1.1875 C 0.484375 -1.488281 0.421875 -1.835938 0.421875 -2.234375 C 0.421875 -2.453125 0.457031 -2.671875 0.53125 -2.890625 C 0.601562 -3.109375 0.722656 -3.316406 0.890625 -3.515625 C 1.054688 -3.710938 1.269531 -3.894531 1.53125 -4.0625 C 1.800781 -4.238281 2.128906 -4.390625 2.515625 -4.515625 C 2.910156 -4.648438 3.363281 -4.757812 3.875 -4.84375 C 4.394531 -4.925781 4.984375 -4.976562 5.640625 -5 L 5.640625 -5.515625 C 5.640625 -6.097656 5.515625 -6.523438 5.265625 -6.796875 C 5.015625 -7.078125 4.65625 -7.21875 4.1875 -7.21875 C 3.851562 -7.21875 3.570312 -7.175781 3.34375 -7.09375 C 3.125 -7.019531 2.925781 -6.929688 2.75 -6.828125 C 2.582031 -6.734375 2.425781 -6.644531 2.28125 -6.5625 C 2.144531 -6.488281 1.992188 -6.453125 1.828125 -6.453125 C 1.679688 -6.453125 1.554688 -6.488281 1.453125 -6.5625 C 1.347656 -6.644531 1.265625 -6.734375 1.203125 -6.828125 Z M 0.828125 -7.5 "/></g></g></g><g fill="#000000" fill-opacity="1"><g transform="translate(163.961873, 242.006821)"><g><path d="M 3.15625 -12.625 L 3.15625 0 L 1.0625 0 L 1.0625 -12.625 Z M 3.15625 -12.625 "/></g></g></g><g fill="#000000" fill-opacity="1"><g transform="translate(168.184468, 242.006821)"><g/></g></g><g fill="#000000" fill-opacity="1"><g transform="translate(172.313599, 242.006821)"><g><path d="M 3.65625 -10.46875 L 3.65625 -7.0625 L 7.96875 -7.0625 L 7.96875 -5.296875 L 3.65625 -5.296875 L 3.65625 -1.828125 L 9.125 -1.828125 L 9.125 0 L 1.375 0 L 1.375 -12.296875 L 9.125 -12.296875 L 9.125 -10.46875 Z M 3.65625 -10.46875 "/></g></g></g><g fill="#000000" fill-opacity="1"><g transform="translate(182.084186, 242.006821)"><g><path d="M 6.515625 -6.5 C 6.273438 -6.78125 6.015625 -6.976562 5.734375 -7.09375 C 5.453125 -7.21875 5.148438 -7.28125 4.828125 -7.28125 C 4.515625 -7.28125 4.226562 -7.21875 3.96875 -7.09375 C 3.71875 -6.976562 3.5 -6.800781 3.3125 -6.5625 C 3.132812 -6.320312 2.992188 -6.015625 2.890625 -5.640625 C 2.796875 -5.273438 2.75 -4.835938 2.75 -4.328125 C 2.75 -3.816406 2.789062 -3.382812 2.875 -3.03125 C 2.957031 -2.675781 3.070312 -2.390625 3.21875 -2.171875 C 3.375 -1.953125 3.5625 -1.789062 3.78125 -1.6875 C 4.007812 -1.582031 4.257812 -1.53125 4.53125 -1.53125 C 4.96875 -1.53125 5.335938 -1.617188 5.640625 -1.796875 C 5.953125 -1.984375 6.242188 -2.242188 6.515625 -2.578125 Z M 8.609375 -12.625 L 8.609375 0 L 7.328125 0 C 7.046875 0 6.867188 -0.125 6.796875 -0.375 L 6.625 -1.21875 C 6.269531 -0.820312 5.863281 -0.5 5.40625 -0.25 C 4.945312 0 4.414062 0.125 3.8125 0.125 C 3.34375 0.125 2.90625 0.0234375 2.5 -0.171875 C 2.101562 -0.367188 1.757812 -0.65625 1.46875 -1.03125 C 1.1875 -1.40625 0.96875 -1.867188 0.8125 -2.421875 C 0.664062 -2.984375 0.59375 -3.617188 0.59375 -4.328125 C 0.59375 -4.972656 0.675781 -5.570312 0.84375 -6.125 C 1.019531 -6.6875 1.269531 -7.171875 1.59375 -7.578125 C 1.925781 -7.984375 2.320312 -8.300781 2.78125 -8.53125 C 3.238281 -8.757812 3.753906 -8.875 4.328125 -8.875 C 4.816406 -8.875 5.234375 -8.796875 5.578125 -8.640625 C 5.929688 -8.492188 6.242188 -8.289062 6.515625 -8.03125 L 6.515625 -12.625 Z M 8.609375 -12.625 "/></g></g></g><g fill="#000000" fill-opacity="1"><g transform="translate(191.727332, 242.006821)"><g><path d="M 8.546875 -8.71875 L 8.546875 0 L 7.265625 0 C 6.984375 0 6.804688 -0.125 6.734375 -0.375 L 6.59375 -1.078125 C 6.238281 -0.710938 5.84375 -0.414062 5.40625 -0.1875 C 4.976562 0.03125 4.472656 0.140625 3.890625 0.140625 C 3.410156 0.140625 2.988281 0.0625 2.625 -0.09375 C 2.257812 -0.257812 1.953125 -0.488281 1.703125 -0.78125 C 1.453125 -1.082031 1.265625 -1.4375 1.140625 -1.84375 C 1.015625 -2.25 0.953125 -2.691406 0.953125 -3.171875 L 0.953125 -8.71875 L 3.046875 -8.71875 L 3.046875 -3.171875 C 3.046875 -2.640625 3.171875 -2.226562 3.421875 -1.9375 C 3.671875 -1.644531 4.039062 -1.5 4.53125 -1.5 C 4.894531 -1.5 5.234375 -1.578125 5.546875 -1.734375 C 5.867188 -1.898438 6.171875 -2.125 6.453125 -2.40625 L 6.453125 -8.71875 Z M 8.546875 -8.71875 "/></g></g></g><g fill="#000000" fill-opacity="1"><g transform="translate(201.311003, 242.006821)"><g><path d="M 7.28125 -6.875 C 7.21875 -6.789062 7.15625 -6.726562 7.09375 -6.6875 C 7.039062 -6.644531 6.957031 -6.625 6.84375 -6.625 C 6.738281 -6.625 6.632812 -6.65625 6.53125 -6.71875 C 6.425781 -6.78125 6.300781 -6.851562 6.15625 -6.9375 C 6.019531 -7.019531 5.851562 -7.09375 5.65625 -7.15625 C 5.457031 -7.226562 5.21875 -7.265625 4.9375 -7.265625 C 4.5625 -7.265625 4.234375 -7.195312 3.953125 -7.0625 C 3.679688 -6.925781 3.453125 -6.734375 3.265625 -6.484375 C 3.078125 -6.234375 2.9375 -5.929688 2.84375 -5.578125 C 2.757812 -5.222656 2.71875 -4.820312 2.71875 -4.375 C 2.71875 -3.914062 2.765625 -3.503906 2.859375 -3.140625 C 2.960938 -2.773438 3.109375 -2.46875 3.296875 -2.21875 C 3.484375 -1.976562 3.707031 -1.789062 3.96875 -1.65625 C 4.238281 -1.53125 4.539062 -1.46875 4.875 -1.46875 C 5.207031 -1.46875 5.476562 -1.507812 5.6875 -1.59375 C 5.894531 -1.675781 6.066406 -1.765625 6.203125 -1.859375 C 6.347656 -1.960938 6.472656 -2.054688 6.578125 -2.140625 C 6.679688 -2.222656 6.800781 -2.265625 6.9375 -2.265625 C 7.101562 -2.265625 7.226562 -2.195312 7.3125 -2.0625 L 7.921875 -1.296875 C 7.691406 -1.023438 7.4375 -0.796875 7.15625 -0.609375 C 6.882812 -0.429688 6.601562 -0.285156 6.3125 -0.171875 C 6.019531 -0.0664062 5.71875 0.00390625 5.40625 0.046875 C 5.101562 0.0976562 4.800781 0.125 4.5 0.125 C 3.957031 0.125 3.445312 0.0234375 2.96875 -0.171875 C 2.5 -0.367188 2.082031 -0.660156 1.71875 -1.046875 C 1.363281 -1.429688 1.082031 -1.90625 0.875 -2.46875 C 0.664062 -3.03125 0.5625 -3.664062 0.5625 -4.375 C 0.5625 -5.019531 0.65625 -5.613281 0.84375 -6.15625 C 1.03125 -6.707031 1.300781 -7.179688 1.65625 -7.578125 C 2.007812 -7.972656 2.453125 -8.285156 2.984375 -8.515625 C 3.515625 -8.742188 4.117188 -8.859375 4.796875 -8.859375 C 5.453125 -8.859375 6.023438 -8.753906 6.515625 -8.546875 C 7.003906 -8.335938 7.445312 -8.035156 7.84375 -7.640625 Z M 7.28125 -6.875 "/></g></g></g><g fill="#000000" fill-opacity="1"><g transform="translate(209.50131, 242.006821)"><g><path d="M 5.640625 -3.71875 C 5.035156 -3.695312 4.523438 -3.644531 4.109375 -3.5625 C 3.703125 -3.488281 3.375 -3.390625 3.125 -3.265625 C 2.875 -3.148438 2.691406 -3.015625 2.578125 -2.859375 C 2.472656 -2.703125 2.421875 -2.53125 2.421875 -2.34375 C 2.421875 -1.96875 2.53125 -1.703125 2.75 -1.546875 C 2.96875 -1.390625 3.253906 -1.3125 3.609375 -1.3125 C 4.035156 -1.3125 4.40625 -1.390625 4.71875 -1.546875 C 5.03125 -1.703125 5.335938 -1.9375 5.640625 -2.25 Z M 0.828125 -7.5 C 1.835938 -8.414062 3.046875 -8.875 4.453125 -8.875 C 4.960938 -8.875 5.414062 -8.789062 5.8125 -8.625 C 6.21875 -8.457031 6.5625 -8.222656 6.84375 -7.921875 C 7.125 -7.628906 7.332031 -7.273438 7.46875 -6.859375 C 7.613281 -6.453125 7.6875 -6.003906 7.6875 -5.515625 L 7.6875 0 L 6.734375 0 C 6.535156 0 6.382812 -0.0234375 6.28125 -0.078125 C 6.175781 -0.140625 6.09375 -0.265625 6.03125 -0.453125 L 5.84375 -1.078125 C 5.625 -0.878906 5.40625 -0.703125 5.1875 -0.546875 C 4.976562 -0.398438 4.757812 -0.273438 4.53125 -0.171875 C 4.3125 -0.078125 4.070312 -0.00390625 3.8125 0.046875 C 3.550781 0.109375 3.265625 0.140625 2.953125 0.140625 C 2.585938 0.140625 2.25 0.09375 1.9375 0 C 1.625 -0.101562 1.351562 -0.253906 1.125 -0.453125 C 0.90625 -0.648438 0.734375 -0.894531 0.609375 -1.1875 C 0.484375 -1.488281 0.421875 -1.835938 0.421875 -2.234375 C 0.421875 -2.453125 0.457031 -2.671875 0.53125 -2.890625 C 0.601562 -3.109375 0.722656 -3.316406 0.890625 -3.515625 C 1.054688 -3.710938 1.269531 -3.894531 1.53125 -4.0625 C 1.800781 -4.238281 2.128906 -4.390625 2.515625 -4.515625 C 2.910156 -4.648438 3.363281 -4.757812 3.875 -4.84375 C 4.394531 -4.925781 4.984375 -4.976562 5.640625 -5 L 5.640625 -5.515625 C 5.640625 -6.097656 5.515625 -6.523438 5.265625 -6.796875 C 5.015625 -7.078125 4.65625 -7.21875 4.1875 -7.21875 C 3.851562 -7.21875 3.570312 -7.175781 3.34375 -7.09375 C 3.125 -7.019531 2.925781 -6.929688 2.75 -6.828125 C 2.582031 -6.734375 2.425781 -6.644531 2.28125 -6.5625 C 2.144531 -6.488281 1.992188 -6.453125 1.828125 -6.453125 C 1.679688 -6.453125 1.554688 -6.488281 1.453125 -6.5625 C 1.347656 -6.644531 1.265625 -6.734375 1.203125 -6.828125 Z M 0.828125 -7.5 "/></g></g></g><g fill="#000000" fill-opacity="1"><g transform="translate(218.124914, 242.006821)"><g><path d="M 3.9375 0.140625 C 3.1875 0.140625 2.609375 -0.0703125 2.203125 -0.5 C 1.796875 -0.925781 1.59375 -1.519531 1.59375 -2.28125 L 1.59375 -7.15625 L 0.703125 -7.15625 C 0.585938 -7.15625 0.488281 -7.191406 0.40625 -7.265625 C 0.320312 -7.335938 0.28125 -7.445312 0.28125 -7.59375 L 0.28125 -8.421875 L 1.6875 -8.65625 L 2.140625 -11.03125 C 2.160156 -11.144531 2.207031 -11.234375 2.28125 -11.296875 C 2.363281 -11.359375 2.46875 -11.390625 2.59375 -11.390625 L 3.6875 -11.390625 L 3.6875 -8.640625 L 6.015625 -8.640625 L 6.015625 -7.15625 L 3.6875 -7.15625 L 3.6875 -2.421875 C 3.6875 -2.148438 3.753906 -1.9375 3.890625 -1.78125 C 4.023438 -1.632812 4.207031 -1.5625 4.4375 -1.5625 C 4.5625 -1.5625 4.664062 -1.578125 4.75 -1.609375 C 4.84375 -1.640625 4.921875 -1.671875 4.984375 -1.703125 C 5.054688 -1.734375 5.117188 -1.765625 5.171875 -1.796875 C 5.222656 -1.828125 5.273438 -1.84375 5.328125 -1.84375 C 5.390625 -1.84375 5.4375 -1.828125 5.46875 -1.796875 C 5.507812 -1.765625 5.554688 -1.71875 5.609375 -1.65625 L 6.234375 -0.640625 C 5.921875 -0.378906 5.566406 -0.179688 5.171875 -0.046875 C 4.773438 0.078125 4.363281 0.140625 3.9375 0.140625 Z M 3.9375 0.140625 "/></g></g></g><g fill="#000000" fill-opacity="1"><g transform="translate(224.446057, 242.006821)"><g><path d="M 3.21875 -8.71875 L 3.21875 0 L 1.109375 0 L 1.109375 -8.71875 Z M 3.5 -11.265625 C 3.5 -11.078125 3.460938 -10.90625 3.390625 -10.75 C 3.316406 -10.59375 3.21875 -10.453125 3.09375 -10.328125 C 2.976562 -10.210938 2.835938 -10.117188 2.671875 -10.046875 C 2.503906 -9.972656 2.328125 -9.9375 2.140625 -9.9375 C 1.960938 -9.9375 1.789062 -9.972656 1.625 -10.046875 C 1.46875 -10.117188 1.328125 -10.210938 1.203125 -10.328125 C 1.085938 -10.453125 0.992188 -10.59375 0.921875 -10.75 C 0.847656 -10.90625 0.8125 -11.078125 0.8125 -11.265625 C 0.8125 -11.453125 0.847656 -11.625 0.921875 -11.78125 C 0.992188 -11.945312 1.085938 -12.085938 1.203125 -12.203125 C 1.328125 -12.328125 1.46875 -12.425781 1.625 -12.5 C 1.789062 -12.570312 1.960938 -12.609375 2.140625 -12.609375 C 2.328125 -12.609375 2.503906 -12.570312 2.671875 -12.5 C 2.835938 -12.425781 2.976562 -12.328125 3.09375 -12.203125 C 3.21875 -12.085938 3.316406 -11.945312 3.390625 -11.78125 C 3.460938 -11.625 3.5 -11.453125 3.5 -11.265625 Z M 3.5 -11.265625 "/></g></g></g><g fill="#000000" fill-opacity="1"><g transform="translate(228.762105, 242.006821)"><g><path d="M 4.890625 -8.859375 C 5.535156 -8.859375 6.125 -8.753906 6.65625 -8.546875 C 7.1875 -8.335938 7.640625 -8.039062 8.015625 -7.65625 C 8.390625 -7.269531 8.679688 -6.796875 8.890625 -6.234375 C 9.097656 -5.679688 9.203125 -5.0625 9.203125 -4.375 C 9.203125 -3.6875 9.097656 -3.0625 8.890625 -2.5 C 8.679688 -1.945312 8.390625 -1.472656 8.015625 -1.078125 C 7.640625 -0.691406 7.1875 -0.394531 6.65625 -0.1875 C 6.125 0.0195312 5.535156 0.125 4.890625 0.125 C 4.242188 0.125 3.65625 0.0195312 3.125 -0.1875 C 2.59375 -0.394531 2.132812 -0.691406 1.75 -1.078125 C 1.375 -1.472656 1.082031 -1.945312 0.875 -2.5 C 0.664062 -3.0625 0.5625 -3.6875 0.5625 -4.375 C 0.5625 -5.0625 0.664062 -5.679688 0.875 -6.234375 C 1.082031 -6.796875 1.375 -7.269531 1.75 -7.65625 C 2.132812 -8.039062 2.59375 -8.335938 3.125 -8.546875 C 3.65625 -8.753906 4.242188 -8.859375 4.890625 -8.859375 Z M 4.890625 -1.484375 C 5.617188 -1.484375 6.15625 -1.726562 6.5 -2.21875 C 6.851562 -2.707031 7.03125 -3.421875 7.03125 -4.359375 C 7.03125 -5.296875 6.851562 -6.007812 6.5 -6.5 C 6.15625 -7 5.617188 -7.25 4.890625 -7.25 C 4.160156 -7.25 3.617188 -7 3.265625 -6.5 C 2.910156 -6.007812 2.734375 -5.296875 2.734375 -4.359375 C 2.734375 -3.421875 2.910156 -2.707031 3.265625 -2.21875 C 3.617188 -1.726562 4.160156 -1.484375 4.890625 -1.484375 Z M 4.890625 -1.484375 "/></g></g></g><g fill="#000000" fill-opacity="1"><g transform="translate(238.5242, 242.006821)"><g><path d="M 3 -7.65625 C 3.175781 -7.820312 3.359375 -7.976562 3.546875 -8.125 C 3.742188 -8.28125 3.953125 -8.410156 4.171875 -8.515625 C 4.390625 -8.617188 4.625 -8.703125 4.875 -8.765625 C 5.125 -8.828125 5.394531 -8.859375 5.6875 -8.859375 C 6.164062 -8.859375 6.585938 -8.773438 6.953125 -8.609375 C 7.328125 -8.453125 7.632812 -8.226562 7.875 -7.9375 C 8.125 -7.644531 8.3125 -7.296875 8.4375 -6.890625 C 8.570312 -6.484375 8.640625 -6.035156 8.640625 -5.546875 L 8.640625 0 L 6.53125 0 L 6.53125 -5.546875 C 6.53125 -6.078125 6.410156 -6.488281 6.171875 -6.78125 C 5.929688 -7.070312 5.5625 -7.21875 5.0625 -7.21875 C 4.695312 -7.21875 4.351562 -7.132812 4.03125 -6.96875 C 3.71875 -6.8125 3.421875 -6.59375 3.140625 -6.3125 L 3.140625 0 L 1.03125 0 L 1.03125 -8.71875 L 2.328125 -8.71875 C 2.597656 -8.71875 2.773438 -8.59375 2.859375 -8.34375 Z M 3 -7.65625 "/></g></g></g><g fill="#000000" fill-opacity="1"><g transform="translate(248.107871, 242.006821)"><g/></g></g><g fill="#000000" fill-opacity="1"><g transform="translate(252.237002, 242.006821)"><g><path d="M 11.5 -6.15625 L 11.5 -1.1875 C 10.875 -0.726562 10.207031 -0.390625 9.5 -0.171875 C 8.800781 0.0351562 8.046875 0.140625 7.234375 0.140625 C 6.234375 0.140625 5.328125 -0.015625 4.515625 -0.328125 C 3.703125 -0.640625 3.007812 -1.070312 2.4375 -1.625 C 1.863281 -2.1875 1.421875 -2.851562 1.109375 -3.625 C 0.796875 -4.394531 0.640625 -5.234375 0.640625 -6.140625 C 0.640625 -7.066406 0.785156 -7.914062 1.078125 -8.6875 C 1.378906 -9.457031 1.804688 -10.117188 2.359375 -10.671875 C 2.921875 -11.234375 3.59375 -11.664062 4.375 -11.96875 C 5.164062 -12.269531 6.050781 -12.421875 7.03125 -12.421875 C 7.53125 -12.421875 7.992188 -12.378906 8.421875 -12.296875 C 8.859375 -12.222656 9.257812 -12.113281 9.625 -11.96875 C 10 -11.832031 10.335938 -11.664062 10.640625 -11.46875 C 10.953125 -11.269531 11.234375 -11.054688 11.484375 -10.828125 L 10.84375 -9.78125 C 10.738281 -9.613281 10.601562 -9.507812 10.4375 -9.46875 C 10.269531 -9.4375 10.09375 -9.484375 9.90625 -9.609375 C 9.71875 -9.710938 9.53125 -9.816406 9.34375 -9.921875 C 9.15625 -10.035156 8.945312 -10.128906 8.71875 -10.203125 C 8.488281 -10.285156 8.226562 -10.351562 7.9375 -10.40625 C 7.65625 -10.457031 7.328125 -10.484375 6.953125 -10.484375 C 6.347656 -10.484375 5.800781 -10.378906 5.3125 -10.171875 C 4.820312 -9.972656 4.398438 -9.679688 4.046875 -9.296875 C 3.703125 -8.921875 3.4375 -8.460938 3.25 -7.921875 C 3.0625 -7.390625 2.96875 -6.796875 2.96875 -6.140625 C 2.96875 -5.441406 3.066406 -4.816406 3.265625 -4.265625 C 3.472656 -3.710938 3.757812 -3.242188 4.125 -2.859375 C 4.488281 -2.472656 4.925781 -2.179688 5.4375 -1.984375 C 5.957031 -1.785156 6.535156 -1.6875 7.171875 -1.6875 C 7.628906 -1.6875 8.035156 -1.734375 8.390625 -1.828125 C 8.742188 -1.921875 9.09375 -2.050781 9.4375 -2.21875 L 9.4375 -4.453125 L 7.890625 -4.453125 C 7.742188 -4.453125 7.628906 -4.488281 7.546875 -4.5625 C 7.460938 -4.644531 7.421875 -4.75 7.421875 -4.875 L 7.421875 -6.15625 Z M 11.5 -6.15625 "/></g></g></g><g fill="#000000" fill-opacity="1"><g transform="translate(264.573446, 242.006821)"><g><path d="M 8.546875 -8.71875 L 8.546875 0 L 7.265625 0 C 6.984375 0 6.804688 -0.125 6.734375 -0.375 L 6.59375 -1.078125 C 6.238281 -0.710938 5.84375 -0.414062 5.40625 -0.1875 C 4.976562 0.03125 4.472656 0.140625 3.890625 0.140625 C 3.410156 0.140625 2.988281 0.0625 2.625 -0.09375 C 2.257812 -0.257812 1.953125 -0.488281 1.703125 -0.78125 C 1.453125 -1.082031 1.265625 -1.4375 1.140625 -1.84375 C 1.015625 -2.25 0.953125 -2.691406 0.953125 -3.171875 L 0.953125 -8.71875 L 3.046875 -8.71875 L 3.046875 -3.171875 C 3.046875 -2.640625 3.171875 -2.226562 3.421875 -1.9375 C 3.671875 -1.644531 4.039062 -1.5 4.53125 -1.5 C 4.894531 -1.5 5.234375 -1.578125 5.546875 -1.734375 C 5.867188 -1.898438 6.171875 -2.125 6.453125 -2.40625 L 6.453125 -8.71875 Z M 8.546875 -8.71875 "/></g></g></g><g fill="#000000" fill-opacity="1"><g transform="translate(274.157117, 242.006821)"><g><path d="M 3.21875 -8.71875 L 3.21875 0 L 1.109375 0 L 1.109375 -8.71875 Z M 3.5 -11.265625 C 3.5 -11.078125 3.460938 -10.90625 3.390625 -10.75 C 3.316406 -10.59375 3.21875 -10.453125 3.09375 -10.328125 C 2.976562 -10.210938 2.835938 -10.117188 2.671875 -10.046875 C 2.503906 -9.972656 2.328125 -9.9375 2.140625 -9.9375 C 1.960938 -9.9375 1.789062 -9.972656 1.625 -10.046875 C 1.46875 -10.117188 1.328125 -10.210938 1.203125 -10.328125 C 1.085938 -10.453125 0.992188 -10.59375 0.921875 -10.75 C 0.847656 -10.90625 0.8125 -11.078125 0.8125 -11.265625 C 0.8125 -11.453125 0.847656 -11.625 0.921875 -11.78125 C 0.992188 -11.945312 1.085938 -12.085938 1.203125 -12.203125 C 1.328125 -12.328125 1.46875 -12.425781 1.625 -12.5 C 1.789062 -12.570312 1.960938 -12.609375 2.140625 -12.609375 C 2.328125 -12.609375 2.503906 -12.570312 2.671875 -12.5 C 2.835938 -12.425781 2.976562 -12.328125 3.09375 -12.203125 C 3.21875 -12.085938 3.316406 -11.945312 3.390625 -11.78125 C 3.460938 -11.625 3.5 -11.453125 3.5 -11.265625 Z M 3.5 -11.265625 "/></g></g></g><g fill="#000000" fill-opacity="1"><g transform="translate(278.473165, 242.006821)"><g><path d="M 6.515625 -6.5 C 6.273438 -6.78125 6.015625 -6.976562 5.734375 -7.09375 C 5.453125 -7.21875 5.148438 -7.28125 4.828125 -7.28125 C 4.515625 -7.28125 4.226562 -7.21875 3.96875 -7.09375 C 3.71875 -6.976562 3.5 -6.800781 3.3125 -6.5625 C 3.132812 -6.320312 2.992188 -6.015625 2.890625 -5.640625 C 2.796875 -5.273438 2.75 -4.835938 2.75 -4.328125 C 2.75 -3.816406 2.789062 -3.382812 2.875 -3.03125 C 2.957031 -2.675781 3.070312 -2.390625 3.21875 -2.171875 C 3.375 -1.953125 3.5625 -1.789062 3.78125 -1.6875 C 4.007812 -1.582031 4.257812 -1.53125 4.53125 -1.53125 C 4.96875 -1.53125 5.335938 -1.617188 5.640625 -1.796875 C 5.953125 -1.984375 6.242188 -2.242188 6.515625 -2.578125 Z M 8.609375 -12.625 L 8.609375 0 L 7.328125 0 C 7.046875 0 6.867188 -0.125 6.796875 -0.375 L 6.625 -1.21875 C 6.269531 -0.820312 5.863281 -0.5 5.40625 -0.25 C 4.945312 0 4.414062 0.125 3.8125 0.125 C 3.34375 0.125 2.90625 0.0234375 2.5 -0.171875 C 2.101562 -0.367188 1.757812 -0.65625 1.46875 -1.03125 C 1.1875 -1.40625 0.96875 -1.867188 0.8125 -2.421875 C 0.664062 -2.984375 0.59375 -3.617188 0.59375 -4.328125 C 0.59375 -4.972656 0.675781 -5.570312 0.84375 -6.125 C 1.019531 -6.6875 1.269531 -7.171875 1.59375 -7.578125 C 1.925781 -7.984375 2.320312 -8.300781 2.78125 -8.53125 C 3.238281 -8.757812 3.753906 -8.875 4.328125 -8.875 C 4.816406 -8.875 5.234375 -8.796875 5.578125 -8.640625 C 5.929688 -8.492188 6.242188 -8.289062 6.515625 -8.03125 L 6.515625 -12.625 Z M 8.609375 -12.625 "/></g></g></g><g fill="#000000" fill-opacity="1"><g transform="translate(288.116322, 242.006821)"><g><path d="M 6.65625 -5.359375 C 6.65625 -5.628906 6.613281 -5.882812 6.53125 -6.125 C 6.457031 -6.375 6.34375 -6.585938 6.1875 -6.765625 C 6.039062 -6.941406 5.847656 -7.082031 5.609375 -7.1875 C 5.378906 -7.300781 5.109375 -7.359375 4.796875 -7.359375 C 4.191406 -7.359375 3.710938 -7.179688 3.359375 -6.828125 C 3.015625 -6.484375 2.789062 -5.992188 2.6875 -5.359375 Z M 2.65625 -4.09375 C 2.6875 -3.644531 2.765625 -3.257812 2.890625 -2.9375 C 3.015625 -2.613281 3.175781 -2.34375 3.375 -2.125 C 3.582031 -1.914062 3.828125 -1.757812 4.109375 -1.65625 C 4.390625 -1.550781 4.703125 -1.5 5.046875 -1.5 C 5.378906 -1.5 5.671875 -1.535156 5.921875 -1.609375 C 6.171875 -1.691406 6.382812 -1.78125 6.5625 -1.875 C 6.75 -1.96875 6.910156 -2.054688 7.046875 -2.140625 C 7.191406 -2.222656 7.328125 -2.265625 7.453125 -2.265625 C 7.628906 -2.265625 7.757812 -2.195312 7.84375 -2.0625 L 8.453125 -1.296875 C 8.210938 -1.023438 7.945312 -0.796875 7.65625 -0.609375 C 7.375 -0.429688 7.078125 -0.285156 6.765625 -0.171875 C 6.453125 -0.0664062 6.128906 0.00390625 5.796875 0.046875 C 5.472656 0.0976562 5.160156 0.125 4.859375 0.125 C 4.242188 0.125 3.675781 0.0234375 3.15625 -0.171875 C 2.632812 -0.367188 2.179688 -0.664062 1.796875 -1.0625 C 1.410156 -1.457031 1.109375 -1.945312 0.890625 -2.53125 C 0.671875 -3.113281 0.5625 -3.785156 0.5625 -4.546875 C 0.5625 -5.140625 0.65625 -5.695312 0.84375 -6.21875 C 1.039062 -6.75 1.316406 -7.207031 1.671875 -7.59375 C 2.035156 -7.976562 2.476562 -8.285156 3 -8.515625 C 3.519531 -8.742188 4.101562 -8.859375 4.75 -8.859375 C 5.300781 -8.859375 5.804688 -8.769531 6.265625 -8.59375 C 6.734375 -8.414062 7.132812 -8.15625 7.46875 -7.8125 C 7.800781 -7.476562 8.0625 -7.066406 8.25 -6.578125 C 8.445312 -6.085938 8.546875 -5.53125 8.546875 -4.90625 C 8.546875 -4.582031 8.507812 -4.363281 8.4375 -4.25 C 8.375 -4.144531 8.242188 -4.09375 8.046875 -4.09375 Z M 2.65625 -4.09375 "/></g></g></g><g fill="#ffa43a" fill-opacity="1"><g transform="translate(275.711353, 200.292961)"><g><path d="M 50.15625 18.125 C 46.726562 16.289062 43.238281 14.019531 39.6875 11.3125 C 36.132812 8.613281 32.40625 5.429688 28.5 1.765625 C 22.945312 1.671875 18.226562 0.460938 14.34375 -1.859375 C 10.46875 -4.191406 7.519531 -7.578125 5.5 -12.015625 C 3.476562 -16.460938 2.46875 -21.890625 2.46875 -28.296875 C 2.46875 -34.785156 3.515625 -40.25 5.609375 -44.6875 C 7.703125 -49.132812 10.742188 -52.5 14.734375 -54.78125 C 18.734375 -57.0625 23.601562 -58.203125 29.34375 -58.203125 C 35.082031 -58.203125 39.953125 -57.0625 43.953125 -54.78125 C 47.953125 -52.5 50.984375 -49.132812 53.046875 -44.6875 C 55.117188 -40.25 56.15625 -34.785156 56.15625 -28.296875 C 56.15625 -22.316406 55.25 -17.1875 53.4375 -12.90625 C 51.625 -8.625 49.003906 -5.285156 45.578125 -2.890625 C 47.359375 -1.242188 49.269531 0.316406 51.3125 1.796875 C 53.363281 3.273438 55.378906 4.582031 57.359375 5.71875 L 54.890625 9.953125 C 48.535156 6.234375 42.394531 1.503906 36.46875 -4.234375 C 40.9375 -5.640625 44.367188 -8.398438 46.765625 -12.515625 C 49.171875 -16.628906 50.375 -21.890625 50.375 -28.296875 C 50.375 -33.609375 49.550781 -38.132812 47.90625 -41.875 C 46.257812 -45.613281 43.859375 -48.445312 40.703125 -50.375 C 37.554688 -52.300781 33.769531 -53.265625 29.34375 -53.265625 C 24.875 -53.265625 21.0625 -52.300781 17.90625 -50.375 C 14.757812 -48.445312 12.363281 -45.625 10.71875 -41.90625 C 9.070312 -38.1875 8.25 -33.648438 8.25 -28.296875 C 8.25 -22.929688 9.070312 -18.363281 10.71875 -14.59375 C 12.363281 -10.832031 14.757812 -7.988281 17.90625 -6.0625 C 21.0625 -4.132812 24.875 -3.171875 29.34375 -3.171875 C 30.289062 -3.171875 30.953125 -3.195312 31.328125 -3.25 C 35.890625 1.082031 39.6875 4.445312 42.71875 6.84375 C 45.75 9.238281 49.097656 11.492188 52.765625 13.609375 Z M 29.34375 -7.046875 C 23.9375 -7.046875 19.796875 -8.832031 16.921875 -12.40625 C 14.054688 -15.988281 12.625 -21.285156 12.625 -28.296875 C 12.625 -35.296875 14.054688 -40.570312 16.921875 -44.125 C 19.796875 -47.675781 23.9375 -49.453125 29.34375 -49.453125 C 34.707031 -49.453125 38.820312 -47.664062 41.6875 -44.09375 C 44.5625 -40.519531 46 -35.253906 46 -28.296875 C 46 -21.285156 44.5625 -15.988281 41.6875 -12.40625 C 38.820312 -8.832031 34.707031 -7.046875 29.34375 -7.046875 Z M 29.34375 -12 C 32.914062 -12 35.617188 -13.289062 37.453125 -15.875 C 39.296875 -18.457031 40.21875 -22.597656 40.21875 -28.296875 C 40.21875 -33.929688 39.296875 -38.039062 37.453125 -40.625 C 35.617188 -43.21875 32.914062 -44.515625 29.34375 -44.515625 C 25.726562 -44.515625 23 -43.21875 21.15625 -40.625 C 19.320312 -38.039062 18.40625 -33.929688 18.40625 -28.296875 C 18.40625 -22.597656 19.320312 -18.457031 21.15625 -15.875 C 23 -13.289062 25.726562 -12 29.34375 -12 Z M 29.34375 -12 "/></g></g></g></svg>