<svg width="40" height="40" viewBox="0 0 40 40" fill="none" xmlns="http://www.w3.org/2000/svg">
<rect x="0.5" y="0.5" width="39" height="39" rx="7.5" stroke="#858585"/>
<path d="M23.759 21.2458L23.2302 20.7139H23.2302L23.759 21.2458ZM24.1765 20.8307L24.7053 21.3625L24.1765 20.8307ZM26.3918 20.5403L26.0336 21.1992H26.0336L26.3918 20.5403ZM28.1431 21.4923L27.7849 22.1513L28.1431 21.4923ZM28.6365 24.4761L29.1654 25.0079L28.6365 24.4761ZM27.3344 25.7708L26.8056 25.239L27.3344 25.7708ZM26.1199 26.3847L26.1895 27.1315H26.1895L26.1199 26.3847ZM17.0808 22.4994L17.6096 21.9675L17.0808 22.4994ZM12.6693 14.2668L11.9205 14.3094L11.9205 14.3094L12.6693 14.2668ZM18.6044 15.5976L19.1332 16.1294L18.6044 15.5976ZM18.7481 13.1649L19.3485 12.7154V12.7154L18.7481 13.1649ZM17.5922 11.6208L16.9918 12.0703L16.9918 12.0703L17.5922 11.6208ZM14.7397 11.3603L15.2685 11.8921L15.2685 11.8921L14.7397 11.3603ZM13.3009 12.7909L12.772 12.2591L12.772 12.2591L13.3009 12.7909ZM20.0579 19.5391L20.5867 19.0073L20.0579 19.5391ZM24.2878 21.7776L24.7053 21.3625L23.6477 20.2988L23.2302 20.7139L24.2878 21.7776ZM26.0336 21.1992L27.7849 22.1513L28.5013 20.8334L26.75 19.8814L26.0336 21.1992ZM28.1077 23.9442L26.8056 25.239L27.8632 26.3027L29.1654 25.0079L28.1077 23.9442ZM26.0503 25.638C24.7362 25.7605 21.3171 25.654 17.6096 21.9675L16.5519 23.0312C20.6301 27.0862 24.5163 27.2875 26.1895 27.1315L26.0503 25.638ZM17.6096 21.9675C14.0719 18.45 13.4904 15.4967 13.4181 14.2243L11.9205 14.3094C12.0135 15.945 12.7477 19.2486 16.5519 23.0312L17.6096 21.9675ZM18.8703 16.3909L19.1332 16.1294L18.0756 15.0658L17.8127 15.3272L18.8703 16.3909ZM19.3485 12.7154L18.1926 11.1714L16.9918 12.0703L18.1477 13.6143L19.3485 12.7154ZM14.2108 10.8284L12.772 12.2591L13.8297 13.3227L15.2685 11.8921L14.2108 10.8284ZM18.3415 15.859C17.8127 15.3272 17.812 15.3279 17.8112 15.3286C17.811 15.3289 17.8103 15.3296 17.8098 15.3301C17.8088 15.3311 17.8078 15.3321 17.8068 15.3331C17.8048 15.3351 17.8027 15.3373 17.8006 15.3395C17.7963 15.3439 17.7918 15.3487 17.787 15.3539C17.7775 15.3642 17.7672 15.3759 17.7561 15.3891C17.7341 15.4154 17.7092 15.4476 17.6832 15.486C17.6311 15.563 17.5747 15.6641 17.5269 15.7909C17.4294 16.0497 17.3782 16.3881 17.4428 16.8041C17.5688 17.6163 18.1257 18.6756 19.529 20.071L20.5867 19.0073C19.2813 17.7093 18.98 16.9286 18.925 16.5741C18.8991 16.4067 18.9267 16.3301 18.9306 16.3197C18.9335 16.3119 18.9335 16.3149 18.925 16.3274C18.9209 16.3335 18.9147 16.3419 18.9059 16.3525C18.9014 16.3578 18.8963 16.3636 18.8904 16.37C18.8875 16.3732 18.8843 16.3765 18.881 16.38C18.8793 16.3818 18.8776 16.3835 18.8758 16.3853C18.8749 16.3862 18.874 16.3872 18.8731 16.3881C18.8726 16.3885 18.8719 16.3892 18.8717 16.3895C18.871 16.3902 18.8703 16.3909 18.3415 15.859ZM19.529 20.071C20.9329 21.4669 21.9971 22.019 22.8105 22.1438C23.2267 22.2076 23.5649 22.157 23.8234 22.0607C23.9501 22.0135 24.0513 21.9577 24.1285 21.906C24.1669 21.8803 24.1992 21.8556 24.2257 21.8338C24.2389 21.8228 24.2506 21.8125 24.261 21.8031C24.2662 21.7984 24.271 21.7939 24.2754 21.7897C24.2777 21.7875 24.2798 21.7855 24.2819 21.7835C24.2829 21.7824 24.2839 21.7815 24.2849 21.7805C24.2854 21.78 24.2861 21.7793 24.2864 21.779C24.2871 21.7783 24.2878 21.7776 23.759 21.2458C23.2302 20.7139 23.2309 20.7132 23.2316 20.7125C23.2318 20.7123 23.2325 20.7116 23.233 20.7112C23.2339 20.7103 23.2348 20.7094 23.2357 20.7085C23.2376 20.7067 23.2393 20.705 23.2411 20.7033C23.2446 20.7 23.2479 20.6969 23.2511 20.694C23.2576 20.6881 23.2634 20.683 23.2687 20.6787C23.2793 20.6699 23.2876 20.6638 23.2937 20.6598C23.3059 20.6516 23.3085 20.6518 23.2998 20.6551C23.2877 20.6596 23.2085 20.6873 23.0379 20.6611C22.678 20.6059 21.8916 20.3048 20.5867 19.0073L19.529 20.071ZM18.1926 11.1714C17.2368 9.89471 15.3553 9.69047 14.2108 10.8284L15.2685 11.8921C15.7273 11.4359 16.5487 11.4785 16.9918 12.0703L18.1926 11.1714ZM13.4181 14.2243C13.4014 13.9298 13.5359 13.6149 13.8297 13.3227L12.772 12.2591C12.2709 12.7574 11.8727 13.4671 11.9205 14.3094L13.4181 14.2243ZM26.8056 25.239C26.5608 25.4823 26.3036 25.6144 26.0503 25.638L26.1895 27.1315C26.8812 27.067 27.4457 26.7178 27.8632 26.3027L26.8056 25.239ZM19.1332 16.1294C20.0588 15.2091 20.1265 13.7547 19.3485 12.7154L18.1477 13.6143C18.4998 14.0847 18.4453 14.6982 18.0756 15.0658L19.1332 16.1294ZM27.7849 22.1513C28.5004 22.5403 28.6053 23.4495 28.1077 23.9442L29.1654 25.0079C30.4258 23.7546 30.035 21.6671 28.5013 20.8334L27.7849 22.1513ZM24.7053 21.3625C25.0368 21.0328 25.5731 20.9489 26.0336 21.1992L26.75 19.8814C25.7335 19.3288 24.4704 19.4808 23.6477 20.2988L24.7053 21.3625Z" fill="#6A6A6A"/>
</svg>
